<svg width="375" height="272" viewBox="0 0 375 272" fill="none" xmlns="http://www.w3.org/2000/svg">
<mask id="mask0_869_9461" style="mask-type:alpha" maskUnits="userSpaceOnUse" x="0" y="0" width="375" height="272">
<rect width="375" height="272" fill="white"/>
</mask>
<g mask="url(#mask0_869_9461)">
<g opacity="0.5">
<path d="M396.546 -148.806C397.485 -148.983 398.311 -149.539 398.842 -150.352C399.373 -151.165 399.565 -152.168 399.377 -153.141C399.19 -154.113 398.636 -154.975 397.84 -155.538C397.043 -156.1 396.068 -156.317 395.129 -156.139L338.498 -145.426L333.818 -169.43L381.362 -179.408L381.509 -179.446C382.376 -179.724 383.103 -180.33 383.547 -181.144C383.991 -181.958 384.119 -182.92 383.906 -183.839C383.692 -184.757 383.153 -185.566 382.395 -186.102C381.638 -186.639 380.717 -186.865 379.816 -186.736L332.427 -176.661L328.232 -198.134L366.796 -217.562C367.219 -217.776 367.595 -218.075 367.903 -218.441C368.211 -218.807 368.445 -219.233 368.593 -219.695C368.74 -220.158 368.796 -220.647 368.76 -221.136C368.723 -221.624 368.594 -222.102 368.38 -222.542C368.165 -222.982 367.869 -223.375 367.51 -223.7C367.15 -224.025 366.732 -224.274 366.282 -224.434C365.831 -224.594 365.356 -224.661 364.884 -224.632C364.411 -224.602 363.951 -224.477 363.528 -224.263L326.751 -205.722L315.017 -265.966L301.801 -362.213C301.755 -362.713 301.611 -363.201 301.377 -363.645C301.144 -364.09 300.825 -364.482 300.442 -364.798C300.059 -365.114 299.618 -365.347 299.148 -365.483C298.677 -365.619 298.187 -365.655 297.706 -365.589C296.758 -365.463 295.903 -364.954 295.328 -364.174C294.753 -363.394 294.504 -362.405 294.635 -361.424L307.852 -265.069C307.859 -264.999 307.876 -264.93 307.904 -264.865L319.777 -203.248L250.711 -187.185L235.032 -260.297C234.798 -261.237 234.235 -262.06 233.454 -262.606C232.634 -263.143 231.649 -263.331 230.709 -263.128L164.539 -248.83L148.576 -322.032C148.472 -322.511 148.278 -322.966 148.004 -323.37C147.731 -323.774 147.385 -324.12 146.984 -324.388C146.584 -324.656 146.138 -324.841 145.671 -324.933C145.204 -325.024 144.727 -325.02 144.265 -324.92C143.803 -324.821 143.366 -324.628 142.979 -324.353C142.592 -324.078 142.263 -323.726 142.01 -323.317C141.757 -322.909 141.586 -322.451 141.505 -321.971C141.425 -321.491 141.437 -320.997 141.542 -320.518L157.363 -247.253L134.836 -242.349L38.5038 -221.427L18.0254 -290.91C17.8873 -291.381 17.6613 -291.819 17.3603 -292.202C17.0593 -292.585 16.6892 -292.904 16.2712 -293.142C15.8532 -293.379 15.3955 -293.53 14.9241 -293.585C14.4528 -293.641 13.977 -293.6 13.524 -293.466C13.071 -293.331 12.6497 -293.105 12.284 -292.801C11.9184 -292.497 11.6156 -292.121 11.393 -291.693C11.1704 -291.266 11.0322 -290.795 10.9865 -290.31C10.9408 -289.824 10.9884 -289.332 11.1265 -288.862L31.4111 -220.142L-140.693 -194.755L-144.921 -239.731C-145.064 -240.68 -145.552 -241.543 -146.286 -242.143C-147.019 -242.742 -147.943 -243.033 -148.866 -242.954C-149.79 -242.876 -150.643 -242.435 -151.25 -241.722C-151.858 -241.009 -152.174 -240.078 -152.133 -239.12L-147.863 -193.776L-302.152 -171.068C-303.097 -170.929 -303.943 -170.407 -304.504 -169.617C-305.065 -168.826 -305.296 -167.833 -305.145 -166.855C-304.993 -165.877 -304.473 -164.994 -303.698 -164.401C-302.923 -163.807 -301.956 -163.552 -301.011 -163.692L-147.146 -186.319L-144.427 -157.484L-295.424 -145.173C-295.896 -145.133 -296.354 -144.998 -296.772 -144.774C-297.19 -144.551 -297.56 -144.244 -297.861 -143.871C-298.468 -143.117 -298.757 -142.14 -298.663 -141.155C-298.568 -140.169 -298.1 -139.256 -297.359 -138.616C-296.619 -137.976 -295.667 -137.661 -294.714 -137.742L-143.71 -150.027L-136.682 -75.1803L-204.918 -102.479C-205.178 -102.582 -205.445 -102.668 -205.715 -102.737L-307.946 -128.533C-309.549 -128.938 -311.231 -128.672 -312.622 -127.793C-314.013 -126.915 -315 -125.495 -315.365 -123.847C-315.729 -122.199 -315.442 -120.458 -314.567 -119.006C-313.692 -117.555 -312.299 -116.512 -310.697 -116.106L-208.874 -90.4776L-135.208 -60.9273L-124.687 20.3739L-148.325 22.9589L-151.681 -15.385C-151.724 -15.8738 -151.86 -16.3506 -152.081 -16.7882C-152.302 -17.2259 -152.604 -17.6158 -152.969 -17.9357C-153.334 -18.2556 -153.755 -18.4992 -154.208 -18.6527C-154.662 -18.8061 -155.138 -18.8663 -155.611 -18.83C-156.084 -18.7936 -156.544 -18.6614 -156.964 -18.4407C-157.384 -18.2201 -157.756 -17.9154 -158.06 -17.5441C-158.364 -17.1727 -158.592 -16.742 -158.733 -16.2766C-158.874 -15.8111 -158.924 -15.3199 -158.881 -14.8312L-155.535 23.6778L-256.921 34.7766C-257.391 34.8284 -257.846 34.9756 -258.258 35.2097C-258.67 35.4439 -259.033 35.7604 -259.324 36.1412C-259.616 36.5221 -259.831 36.9597 -259.957 37.4293C-260.083 37.8988 -260.118 38.391 -260.059 38.8777C-260.001 39.3645 -259.851 39.8363 -259.617 40.2662C-259.383 40.6961 -259.07 41.0756 -258.696 41.3832C-258.322 41.6907 -257.894 41.9202 -257.437 42.0586C-256.98 42.197 -256.503 42.2416 -256.032 42.1898L-174.824 33.3126L-171.413 71.6695C-171.371 72.1588 -171.236 72.6364 -171.015 73.0748C-170.795 73.5131 -170.493 73.9037 -170.128 74.2239C-169.763 74.5441 -169.341 74.7876 -168.887 74.9404C-168.433 75.0933 -167.955 75.1524 -167.482 75.1145L-166.893 74.965C-166.07 74.7499 -165.352 74.2412 -164.864 73.528C-164.376 72.8148 -164.15 71.9428 -164.226 71.0647L-167.671 32.4726L-154.813 31.0521L-140.886 189.609L-163.202 192.563L-175.486 97.0004C-175.609 96.043 -176.085 95.1654 -176.816 94.5524C-177.546 93.9395 -178.473 93.6391 -179.403 93.7144L-237.759 98.0392C-238.714 98.1127 -239.595 98.5753 -240.208 99.3252C-240.821 100.075 -241.117 101.051 -241.029 102.038C-240.941 103.025 -240.478 103.943 -239.741 104.589C-239.004 105.235 -238.053 105.556 -237.098 105.483L-182.229 101.312L-170.393 193.358L-207.157 198.054C-208.046 198.244 -208.827 198.772 -209.347 199.536C-209.866 200.299 -210.085 201.241 -209.96 202.175C-209.835 203.108 -209.375 203.965 -208.672 204.575C-207.968 205.185 -207.073 205.504 -206.164 205.468L-169.449 200.784L-165.605 230.553L-165.191 233.725L-198.388 236.731C-199.29 236.883 -200.098 237.383 -200.649 238.13C-201.199 238.878 -201.451 239.818 -201.354 240.761C-201.257 241.705 -200.818 242.581 -200.126 243.215C-199.433 243.848 -198.539 244.191 -197.622 244.176L-164.156 241.101L-159.173 278.653L-191.266 281.271C-192.22 281.344 -193.101 281.807 -193.714 282.556C-194.327 283.306 -194.623 284.282 -194.535 285.269C-194.447 286.256 -193.984 287.174 -193.247 287.82C-192.51 288.466 -191.559 288.788 -190.605 288.714L-158.221 286.213L-148.72 357.832L-174.354 359.758C-174.855 359.753 -175.35 359.855 -175.808 360.058C-176.265 360.261 -176.675 360.56 -177.013 360.937C-177.35 361.314 -177.606 361.76 -177.766 362.248C-177.926 362.735 -177.986 363.253 -177.942 363.77C-177.898 364.286 -177.751 364.789 -177.51 365.247C-177.269 365.705 -176.94 366.108 -176.543 366.431C-176.146 366.754 -175.69 366.99 -175.204 367.124C-174.718 367.257 -174.211 367.286 -173.717 367.208L-108.094 362.285L-101.654 431.62L-103.627 462.865C-103.594 462.992 -103.562 463.119 -103.536 463.221L-100.362 552.427L-145.231 597.346C-145.809 597.927 -146.269 598.621 -146.584 599.39C-146.899 600.159 -147.063 600.987 -147.067 601.827C-147.071 602.667 -146.915 603.502 -146.607 604.285C-146.3 605.068 -145.847 605.784 -145.274 606.391C-144.701 606.998 -144.021 607.485 -143.27 607.823C-142.52 608.162 -141.715 608.346 -140.902 608.364C-140.088 608.383 -139.281 608.236 -138.528 607.932C-137.775 607.628 -137.089 607.172 -136.511 606.592L-76.7265 546.538L24.9713 537.906L33.1389 600.978L35.3027 631.228L-38.057 637.68L-47.2294 607.503C-47.4728 606.698 -47.9714 605.996 -48.6441 605.513C-49.3169 605.03 -50.1243 604.793 -50.9351 604.84L-74.7175 606.135C-75.6742 606.187 -76.5649 606.63 -77.1938 607.366C-77.8226 608.102 -78.1381 609.071 -78.0709 610.06C-78.0036 611.049 -77.559 611.976 -76.835 612.638C-76.111 613.3 -75.1668 613.643 -74.2101 613.591L-53.1842 612.345L-44.1887 642.134L-42.7794 713.883C-42.7569 714.872 -42.3566 715.819 -41.6658 716.516C-40.975 717.214 -40.0497 717.606 -39.0918 717.607C-38.8057 717.572 -38.5254 717.501 -38.2574 717.395C-37.4769 717.191 -36.789 716.723 -36.303 716.065C-35.8169 715.407 -35.5605 714.596 -35.5745 713.761L-36.3043 676.295L38.1675 670.725L40.9975 710.395C41.0311 710.884 41.1581 711.364 41.371 711.806C41.584 712.248 41.8787 712.643 42.2383 712.97C42.598 713.297 43.0153 713.548 43.4665 713.709C43.9176 713.87 44.3937 713.938 44.8672 713.909L45.5298 713.741C46.3458 713.534 47.0598 713.035 47.5457 712.332C48.0317 711.629 48.2583 710.767 48.1857 709.898L40.6021 603.933L105.718 600.304L107.118 693.427C107.131 694.404 107.511 695.343 108.177 696.048C108.843 696.753 109.744 697.168 110.689 697.207C110.973 697.163 111.253 697.092 111.523 696.996C112.304 696.792 112.992 696.324 113.478 695.666C113.964 695.008 114.22 694.197 114.206 693.362L112.802 599.807L178.974 596.018L182.271 672.218C182.291 672.707 182.405 673.189 182.605 673.636C182.806 674.083 183.089 674.486 183.439 674.823C183.789 675.159 184.199 675.422 184.644 675.597C185.09 675.771 185.563 675.854 186.037 675.84L186.773 675.653C187.571 675.452 188.273 674.973 188.762 674.297C189.251 673.621 189.498 672.788 189.461 671.937L186.163 595.521L244.761 592.354L245.424 592.186C246.281 591.948 247.019 591.391 247.495 590.622C247.971 589.852 248.153 588.923 248.006 588.012C247.859 587.102 247.393 586.273 246.698 585.684C246.002 585.096 245.125 584.789 244.234 584.822L185.841 588.181L184.622 560.211L222.258 562.661C222.62 562.685 222.982 562.656 223.334 562.577C223.888 562.432 224.399 562.154 224.826 561.765L266.943 523.395L326.679 526.359L349.993 565.841C350.341 566.443 350.843 566.935 351.443 567.262C352.043 567.588 352.717 567.736 353.388 567.689L356.899 567.421L357.432 579.096C357.471 579.878 357.744 580.632 358.214 581.254L389.517 622.258C389.952 622.832 390.537 623.266 391.201 623.506C391.865 623.746 392.579 623.783 393.256 623.611C393.745 623.487 394.203 623.26 394.602 622.945C394.973 622.645 395.281 622.272 395.51 621.847C395.739 621.422 395.883 620.952 395.934 620.466C395.985 619.98 395.943 619.486 395.809 619.014C395.676 618.541 395.453 618.099 395.155 617.712L364.517 577.677L364.044 566.962L404.671 563.696L406.343 619.288C406.356 619.78 406.463 620.265 406.657 620.717C406.852 621.169 407.131 621.578 407.478 621.921C407.825 622.263 408.233 622.533 408.678 622.713C409.124 622.894 409.598 622.983 410.074 622.974C410.341 622.933 410.604 622.866 410.859 622.775C411.648 622.573 412.344 622.102 412.834 621.437C413.324 620.772 413.58 619.952 413.56 619.109L411.883 563.085L444.79 560.586L445.506 598.516C445.536 599.503 445.938 600.445 446.627 601.142C447.317 601.838 448.238 602.232 449.194 602.239C449.481 602.208 449.761 602.137 450.028 602.028C450.809 601.824 451.497 601.356 451.983 600.698C452.469 600.04 452.725 599.229 452.711 598.394L450.826 488.221L537.115 466.325C537.61 466.245 538.081 466.059 538.499 465.779C538.917 465.499 539.273 465.132 539.544 464.7C539.815 464.269 539.995 463.782 540.073 463.272C540.151 462.761 540.126 462.238 539.998 461.734C539.87 461.231 539.643 460.758 539.331 460.347C539.019 459.935 538.628 459.593 538.184 459.343C537.741 459.093 537.253 458.94 536.752 458.893C536.251 458.847 535.748 458.908 535.275 459.073L450.605 480.557L449.697 433.33L454.504 435.903C455.298 436.321 456.207 436.427 457.061 436.202C457.554 436.079 458.014 435.847 458.409 435.522C458.805 435.198 459.126 434.788 459.353 434.321C459.781 433.449 459.854 432.433 459.557 431.493C459.26 430.553 458.616 429.767 457.767 429.306L449.548 424.917L446.776 280.162L444.316 151.254L466.907 159.472C468.053 159.886 469.285 159.949 470.454 159.655C471.743 159.329 472.889 158.58 473.721 157.519C474.552 156.458 475.026 155.143 475.07 153.769C475.115 152.394 474.728 151.034 473.967 149.89C473.207 148.746 472.113 147.88 470.849 147.42L364.873 108.922L432.716 42.9497C433.903 41.7973 434.59 40.1974 434.625 38.5019C434.66 36.8065 434.041 35.1544 432.904 33.9092C431.767 32.6638 430.205 31.9274 428.562 31.8617C426.919 31.796 425.329 32.4066 424.143 33.559L410.248 47.053L363.415 30.4949L395.629 -104.448C395.793 -105.384 395.604 -106.356 395.1 -107.165C394.596 -107.974 393.816 -108.56 392.917 -108.802C392.019 -109.044 391.071 -108.925 390.267 -108.468C389.463 -108.012 388.863 -107.253 388.59 -106.346L356.588 27.27L321.213 6.45036L345.228 -44.473L354.657 -50.5495C355.275 -50.9428 355.761 -51.5204 356.052 -52.2076C356.343 -52.8948 356.427 -53.66 356.291 -54.4043L347.238 -100.377L390.408 -111.331C390.902 -111.411 391.374 -111.598 391.792 -111.877C392.21 -112.157 392.565 -112.524 392.836 -112.956C393.107 -113.387 393.287 -113.874 393.366 -114.384C393.444 -114.895 393.418 -115.419 393.29 -115.922C393.163 -116.426 392.935 -116.898 392.623 -117.31C392.311 -117.721 391.921 -118.063 391.477 -118.313C391.033 -118.563 390.545 -118.716 390.044 -118.763C389.544 -118.81 389.041 -118.749 388.567 -118.584L345.84 -107.742L339.939 -138.099L396.546 -148.806ZM438.178 281.178L408.323 329.06L352.306 294.733L385.209 244.968L438.178 281.178ZM440.864 349.001L414.579 332.917L439.772 292.503L440.864 349.001ZM266.211 466.67L264.011 428.765L305.665 424.913L309.661 492.132L266.211 466.67ZM222.828 513.948L219.588 466.176L250.163 465.813L259.334 471.07L261.885 515.713L222.828 513.948ZM-108.936 193.014L-48.4274 184.405L-59.1992 270.946L-105.091 274.465L-108.936 193.014ZM-112.73 26.5226L-112.485 26.4603L-99.4546 24.0748L-95.537 62.5741C-95.4307 63.5556 -94.9548 64.4609 -94.2123 65.0939C-93.4697 65.727 -92.5205 66.0366 -91.5704 65.9557L-91.0305 65.8187C-90.2132 65.6011 -89.4996 65.0956 -89.0118 64.3887C-88.524 63.6818 -88.2923 62.8176 -88.3565 61.944L-92.3309 22.809L-68.1428 18.3779L-57.9984 101.183L-86.0745 108.307C-86.845 108.5 -87.5268 108.954 -88.0118 109.597C-88.4968 110.241 -88.7574 111.036 -88.7523 111.858L-86.0551 182.197L-109.247 185.508L-116.824 26.9653L-112.73 26.5226ZM-84.9242 -21.8142L-85.2438 -40.8838L-75.9129 -37.1569L-75.7088 -37.0732L-17.734 -16.1371L-16.7995 1.34093L-93.0915 15.2821L-94.3737 2.71387L-85.1968 -20.4178C-85.0079 -20.8553 -84.9148 -21.332 -84.9242 -21.8142ZM47.5022 -165.581L82.7064 -45.578L27.1136 -33.449C26.6557 -33.3411 26.2255 -33.1377 25.8491 -32.8513C25.4727 -32.5648 25.158 -32.2013 24.9241 -31.7829L16.6711 -17.364L-11.1086 -27.1904L-18.4549 -160.221L47.5022 -165.581ZM162.474 -240.803L188.494 -246.457L202.787 -176.027L155.433 -164.987L140.045 -235.924L162.474 -240.803ZM243.569 -11.3912L232.992 -63.3696L269.099 -67.466L280.591 -14.0406L243.569 -11.3912ZM197.946 22.4241L192.562 -0.236106L237.791 -3.5866L242.289 18.5671L197.946 22.4241ZM139.051 520.525L135.789 469.887L161.526 468.368L164.45 518.496L139.051 520.525ZM135.256 462.329L133.86 440.77L159.765 438.368L161.073 460.817L135.256 462.329ZM86.4828 445.126L126.76 441.407L128.146 462.725L88.9479 465.033L86.4828 445.126ZM134.631 375.863L130.409 338.633L172.041 296.81L172.27 389.851L159.313 425.264C159.142 425.748 159.068 426.264 159.098 426.782L159.326 430.976L133.52 433.353L134.57 376.447C134.573 376.26 134.56 376.073 134.533 375.888L134.631 375.863ZM2.72619 350.174L-38.3853 351.532L-52.3637 274.412L-41.0118 183.363L-7.04963 178.537L2.72619 350.174ZM-39.4287 13.1505L-34.8332 93.0297L-51.4778 94.7612L-60.9275 17.0617L-39.4287 13.1505ZM187.154 203.289C187.422 204.24 188.031 205.055 188.855 205.566L212.22 219.303L194.374 256.552L188.656 262.121L145.732 143.508L112.713 30.7787L140.693 40.8794L187.154 203.289ZM77.1036 162.737L47.2722 165.62L47.2051 163.606L47.0695 163.071L40.1642 126.901L73.571 122.46L77.1036 162.737ZM-50.5829 102.2L-11.4062 98.0557L-9.88819 125.76L-47.5303 127.51L-47.9357 124.471L-50.5829 102.2ZM29.0964 0.719648L48.2569 7.66785L56.6968 40.9294C56.7234 41.0849 56.7623 41.2381 56.8131 41.3875L69.513 74.2453L70.1043 81.0025L32.3407 85.4653L32.0307 84.2438L23.1869 1.62323L29.0964 0.719648ZM31.7879 120.657L-2.7452 125.085L-4.27745 97.2219L26.5614 93.6765L31.7879 120.657ZM-9.41051 133.305L-7.85119 161.892L-7.34129 171.108L-41.1692 175.845L-46.5798 134.962L-9.41051 133.305ZM-0.635875 161.605L-2.21718 132.725L33.1555 128.002L40.0363 164.179L40.1305 166.403L-0.181511 170.294L-0.635875 161.605ZM73.1204 115.126L38.9645 119.702L33.8827 92.9836L70.8596 88.612L73.1204 115.126ZM76.5604 72.2674L63.6835 39.0212L56.4447 10.493L102.027 26.9621L104.87 76.9754L77.3752 80.214L76.7748 73.2153C76.7067 72.8615 76.6015 72.5158 76.461 72.1843L76.5604 72.2674ZM110.53 48.9395L118.318 75.5134L112.074 76.231L110.53 48.9395ZM120.447 82.7742L139.045 145.773C139.053 145.852 139.072 145.93 139.103 146.002L165.277 218.266L120.444 225.959L112.383 83.6285L120.447 82.7742ZM108.201 15.6713L91.9327 -39.7929L116.778 -44.8242L136.381 26.0463L108.201 15.6713ZM99.8011 12.629L23.5634 -14.806L30.2366 -26.4945L84.6941 -38.3625L99.8011 12.629ZM14.9734 -4.39173L-9.69389 0.106734L-10.5459 -13.5458L14.9734 -4.39173ZM16.0956 3.01628L24.8968 85.1601C24.9105 85.2646 24.9365 85.3671 24.9743 85.4655L25.2067 86.3816L-4.64274 89.8114L-9.21753 7.54323L16.0956 3.01628ZM-11.858 90.6129L-27.7341 92.2848L-32.2625 11.8468L-16.3644 8.92332L-11.858 90.6129ZM-55.0891 125.311L-54.7378 127.931L-80.8904 129.149L-81.4557 114.774L-57.11 108.596L-55.0891 125.311ZM-80.6052 136.553L-53.7512 135.319L-48.2773 176.863L-78.8605 181.211L-80.6052 136.553ZM0.170859 177.653L40.3718 173.737L42.8315 236.036L3.51675 237.886L0.170859 177.653ZM47.5768 173.1L77.7401 170.187L83.0855 232.432L69.6235 234.764L50.0649 235.718L47.5768 173.1ZM77.9381 87.6827L105.205 84.4747L113.289 227.205L90.222 231.217L77.9381 87.6827ZM167.731 225.364L183.042 267.69L128.698 322.11L121.005 233.319L167.731 225.364ZM166.988 437.7L210.179 433.729L211.887 458.785L191.046 459.008L190.899 459.045L168.428 460.359L166.988 437.7ZM166.561 430.251L166.383 427.181L179.182 391.971C179.332 391.556 179.407 391.115 179.4 390.669L179.167 289.584L190.947 277.738L213.401 293.033L210.053 426.231L166.561 430.251ZM220.511 297.892L250.348 318.194L256.379 421.952L217.251 425.569L220.511 297.892ZM257.967 323.412L301.374 353.028L305.263 417.458L263.633 421.303L257.967 323.412ZM308.903 357.89L348.202 378.933L349.699 411.6L312.477 416.548L308.903 357.89ZM307.907 348.608L258.885 315.188L289.71 265.056L341.921 297.044L307.907 348.608ZM252.836 311.116L196.301 272.587L236.459 233.603L283.523 261.263L252.836 311.116ZM209.486 241.883L218.528 222.957L225.023 226.726L209.486 241.883ZM221.705 216.327L252.512 151.816L280.525 172.96L230.511 221.487L221.705 216.327ZM215.358 212.52L193.649 199.853L159.885 81.9227L246.582 147.389L215.358 212.52ZM156.488 70.0806L148.969 43.8448L157.623 47.0663L199.61 62.3351L208.385 109.272L156.488 70.0806ZM161.595 34.9255L144.716 28.8341L123.879 -46.4905L171.931 -56.2185L184.082 -4.82921C183.908 -4.1939 183.902 -3.51911 184.066 -2.87477C184.229 -2.23042 184.556 -1.63998 185.012 -1.16456L196.541 47.5656L161.595 34.9255ZM117.911 -68.0545L166.528 -80.391L170.232 -63.4261L121.91 -53.6297L117.911 -68.0545ZM171.283 -92.4325L217.824 -101.94L224.316 -69.9715L177.352 -64.5014L171.283 -92.4325ZM169.695 -99.7223L163.83 -126.54L210.609 -137.787L216.401 -109.298L169.695 -99.7223ZM190.831 -7.57106L179.094 -57.2236L225.839 -62.5296L236.351 -10.8057L190.831 -7.57106ZM265.253 -85.5054C265.042 -84.847 265.023 -84.1362 265.197 -83.4598C265.342 -82.8832 265.621 -82.3495 266.009 -81.9052L267.559 -74.7682L231.551 -70.6967L224.965 -103.345L259.927 -110.51L265.253 -85.5054ZM223.438 -110.596L217.593 -139.397L251.89 -147.639L258.289 -117.787L223.438 -110.596ZM216.116 -146.661L211.336 -170.233L245.329 -178.127L250.282 -155.005L216.116 -146.661ZM209.121 -144.886L162.343 -133.639L157.116 -157.531L204.378 -168.521L209.121 -144.886ZM148.419 -163.288L107.522 -153.777L89.4863 -224.856L132.932 -234.309L148.419 -163.288ZM150.039 -155.979L162.87 -97.1778C162.583 -96.7578 162.385 -96.279 162.289 -95.7721C162.193 -95.2651 162.201 -94.7413 162.312 -94.234C162.424 -93.7268 162.636 -93.2473 162.936 -92.8264C163.236 -92.4055 163.617 -92.0525 164.054 -91.7899L164.946 -87.6553L112.5 -74.3473C112.036 -74.226 111.601 -74.0103 111.221 -73.7126C110.841 -73.4149 110.524 -73.0412 110.287 -72.6132C110.051 -72.1852 109.9 -71.7115 109.843 -71.2195C109.787 -70.7275 109.826 -70.2272 109.958 -69.7475L114.871 -52.033L89.8288 -46.9518L63.7659 -135.767L150.039 -155.979ZM-18.5085 -29.9989L-57.3849 -44.0252L-51.9688 -82.1841C-51.9267 -82.5165 -51.9245 -82.8537 -51.9624 -83.188L-60.5946 -156.842L-25.6611 -159.693L-18.5085 -29.9989ZM-59.2022 -82.8949L-64.3443 -46.5391L-71.7365 -49.214L-85.8969 -54.8848L-94.5193 -154.031L-67.7751 -156.212L-59.2022 -82.8949ZM-58.9436 278.439L-45.5645 351.755L-87.1746 353.104L-87.3218 353.141L-93.5503 353.611L-104.128 281.967L-58.9436 278.439ZM-44.8724 359.218L-43.4899 421.493L-64.8768 438.405L-71.4603 360.06L-44.8724 359.218ZM-63.9536 447.191L-37.6905 426.333C-37.2427 425.976 -36.8853 425.513 -36.6477 424.982C-36.4101 424.45 -36.2991 423.866 -36.3238 423.277L-37.7307 358.95L2.89511 357.634L7.69324 443.665L-54.4554 506.242L-63.9536 447.191ZM3.96985 245.437L70.2717 242.157L70.6889 242.051L113.801 234.579L122.039 328.811L14.6027 436.82L3.96985 245.437ZM123.749 345.225L127.297 376.505L126.236 434.091L85.3993 437.871L79.4232 389.817L123.749 345.225ZM89.7692 472.49L128.556 470.205L131.864 521.13L96.0591 524.148L89.7692 472.49ZM97.2795 531.531L165.19 525.838L174.799 553.413L104.757 561L97.2795 531.531ZM168.757 467.833L191.246 466.487L212.395 466.241L215.674 514.166L171.679 517.853L168.757 467.833ZM252.684 458.862C252.127 458.525 251.496 458.349 250.856 458.35L219.113 458.848L217.355 433.182L256.845 429.554L258.787 462.324L252.684 458.862ZM312.739 424.066L349.906 419.105L353.226 491.181L317.036 494.947L312.739 424.066ZM357.101 418.227L400.063 412.526L402.265 486.268L360.327 490.544L357.101 418.227ZM356.766 410.727L355.482 383.018L397.196 405.344L356.766 410.727ZM314.095 352.509L348.165 300.958L404.356 335.457L373.849 384.371L314.095 352.509ZM345.947 290.984L293.55 258.881L326.731 205.063L379.092 240.832L345.947 290.984ZM287.216 255.125L241.866 228.249L290.973 180.575L320.706 200.876L287.216 255.125ZM285.734 167.955L255.653 145.25L256.072 144.331L305.119 100.843L341.314 113.979L285.734 167.955ZM264.227 127.363L280.854 92.1023L297.282 98.0643L264.227 127.363ZM254.418 131.017L249.933 140.417L249.729 140.848L216.766 115.949L207.65 65.1976L274.119 89.3418L254.418 131.017ZM204.648 50.7906L199.735 29.9881L279.338 23.3328L279.903 23.1896C280.375 23.1161 280.826 22.9471 281.232 22.6923C281.638 22.4374 281.989 22.1016 282.267 21.7042C282.544 21.3068 282.743 20.8555 282.85 20.376C282.957 19.8965 282.971 19.3983 282.892 18.9098C282.813 18.4212 282.641 17.952 282.387 17.5288C282.133 17.1055 281.802 16.7366 281.412 16.4432C281.022 16.1497 280.582 15.9374 280.115 15.8183C279.649 15.6993 279.166 15.6758 278.694 15.7493L249.695 18.205L245.222 -3.84694L284.396 -6.66318L311.845 9.47733L279.577 77.9075L204.648 50.7906ZM258.924 -149.153L327.242 -165.594L331.555 -143.448L265.22 -119.709L258.924 -149.153ZM321.368 -195.742L325.794 -172.947L257.354 -156.474L252.401 -179.596L321.368 -195.742ZM243.785 -185.347L209.871 -177.445L195.598 -247.799L228.8 -255.005L243.785 -185.347ZM82.4583 -223.316L100.539 -152.06L61.6039 -143.155L53.5345 -170.633L40.6567 -214.28L82.4583 -223.316ZM45.3596 -172.892L-19.8845 -167.605C-20.2553 -167.971 -20.6961 -168.252 -21.1773 -168.43C-21.6586 -168.608 -22.1692 -168.679 -22.6754 -168.638C-23.1815 -168.597 -23.6714 -168.444 -24.1125 -168.191C-24.5536 -167.938 -24.9356 -167.589 -25.2333 -167.169L-95.1558 -161.481L-97.9447 -193.576L33.5344 -212.907L45.3596 -172.892ZM-139.995 -187.375L-105.095 -192.52L-102.3 -160.914L-137.234 -158.063L-139.995 -187.375ZM-136.548 -150.626L-101.713 -153.451L-93.3718 -57.7826L-129.125 -72.0597L-136.548 -150.626ZM-127.485 -57.8758L-92.5908 -43.8953L-92.195 -22.5697L-101.291 0.676773C-101.515 1.23431 -101.603 1.84249 -101.546 2.44818L-100.091 16.6248L-113.65 19.0902L-117.387 19.4966L-127.485 -57.8758ZM-147.628 30.3393L-124.015 27.7606L-116.479 186.449L-133.734 188.661L-147.628 30.3393ZM-158.477 229.611L-162.31 199.785L-116.157 193.898L-114.484 228.904L-158.019 232.962L-158.477 229.611ZM-157.05 240.382L-114.13 236.371L-112.175 274.962L-151.937 278.036L-157.05 240.382ZM-151.066 285.481L-111.409 282.406L-100.831 354.05L-141.448 357.151L-151.066 285.481ZM-96.237 463.265L-94.297 431.893C-94.2673 431.696 -94.2656 431.495 -94.2919 431.296L-100.723 361.58L-99.106 361.468C-98.7169 361.985 -98.2026 362.388 -97.6164 362.634C-97.0302 362.881 -96.3935 362.962 -95.7723 362.87L-95.6005 362.826C-95.1418 362.696 -94.7144 362.473 -94.3429 362.17C-93.9715 361.866 -93.6635 361.488 -93.4369 361.058L-86.9746 360.583L-78.8422 360.308L-71.4401 445.894C-71.4401 445.894 -71.4077 446.022 -71.3948 446.072L-60.7435 512.551L-93.4666 545.422L-96.237 463.265ZM73.1415 396.151L89.1176 524.69L-68.4053 538.359L73.1415 396.151ZM90.0138 532.237L105.421 592.957L39.8945 596.718L32.224 537.149L90.0138 532.237ZM-36.4422 668.854L-36.918 644.948L35.8514 638.538L37.6421 663.301L-36.4422 668.854ZM112.683 592.442C112.651 592.315 112.619 592.188 112.586 592.06L106.536 568.215L177.432 560.6L178.653 588.678L112.683 592.442ZM221.172 555.189L182.445 552.664L172.856 525.166L219.684 521.22L256.691 522.936L221.172 555.189ZM269.059 516.087L266.6 475.511L312.242 502.203L321.896 518.525L269.059 516.087ZM354.919 559.824L320.738 501.917L353.659 498.547L356.487 559.724L354.919 559.824ZM363.687 559.171L360.863 497.803L402.672 493.533L404.55 556.115L363.687 559.171ZM411.75 555.561L409.869 492.763L443.503 489.321L444.789 553.273L411.75 555.561ZM443.377 481.822L409.644 485.289L407.44 411.332L408.527 411.191L442.357 429.315L443.377 481.822ZM380.314 387.714L410.695 339.022L441.01 357.605L442.225 420.87L380.314 387.714ZM439.404 273.039L387.894 237.84L391.076 162.055C391.12 161.067 390.781 160.094 390.135 159.351C389.488 158.609 388.587 158.157 387.629 158.094C387.155 158.063 386.681 158.129 386.234 158.288C385.788 158.447 385.377 158.695 385.027 159.02C384.318 159.674 383.896 160.597 383.852 161.585L380.871 233.121L330.626 198.793L375.417 126.183L437.002 148.478L439.404 273.039ZM368.339 123.509L324.557 194.536L296.338 175.259L354.753 118.559L368.339 123.509ZM351.594 103.948L316.111 91.1466L372.161 41.494L404.353 52.8554L351.594 103.948ZM357.191 36.0287C357.361 36.1267 357.539 36.2085 357.723 36.273L363.977 38.4782L308.013 88.055L286.181 80.051L317.867 12.8251L357.191 36.0287ZM348.658 -55.6635L340.468 -50.3622C339.906 -49.9943 339.451 -49.4769 339.151 -48.863L314.865 2.64344L288.241 -13.029L273.415 -81.7527L340.243 -98.7099L348.658 -55.6635ZM271.87 -88.9723L266.853 -112.349L332.959 -136.165L338.839 -105.992L271.87 -88.9723Z" fill="url(#paint0_linear_869_9461)" fill-opacity="0.6" style="mix-blend-mode:screen"/>
</g>
</g>
<defs>
<linearGradient id="paint0_linear_869_9461" x1="-4.20946" y1="-289.004" x2="140.498" y2="280.772" gradientUnits="userSpaceOnUse">
<stop stop-color="#F4B755"/>
<stop offset="1" stop-color="#F4B755" stop-opacity="0"/>
</linearGradient>
</defs>
</svg>
