<svg width="52" height="66" viewBox="0 0 52 66" fill="none" xmlns="http://www.w3.org/2000/svg">
<path d="M28.26 4.52174V2.40646C28.26 1.07809 27.2472 0 25.9992 0C24.7512 0 23.7383 1.07809 23.7383 2.40646V4.51452C24.4708 4.42067 25.2124 4.3581 25.9675 4.3581C26.7452 4.3581 27.5072 4.42307 28.26 4.52174Z" fill="#BC923B"/>
<path d="M15.8262 57.6523C16.8663 62.171 21.0246 65.5654 26.0001 65.5654C30.9756 65.5654 35.1339 62.171 36.174 57.6523H15.8262Z" fill="#BC923B"/>
<path d="M45.218 44.0872V23.7924C45.218 13.9647 37.8493 5.84727 28.3248 4.68063C27.5512 4.58497 26.7684 4.52197 25.9692 4.52197C25.1933 4.52197 24.4314 4.58264 23.6787 4.67363C14.1775 5.81694 6.7832 13.9484 6.7832 23.7924V44.0872C6.95511 44.0335 42.9275 44.0312 45.218 44.0872ZM23.6462 13.855C19.4717 13.855 16.0754 17.2663 16.0754 21.4592C16.0754 22.7471 15.0347 23.7924 13.7523 23.7924C12.47 23.7924 11.4293 22.7471 11.4293 21.4592C11.4293 14.6927 16.9094 9.18851 23.6462 9.18851C24.9285 9.18851 25.9692 10.2338 25.9692 11.5218C25.9692 12.8097 24.9285 13.855 23.6462 13.855Z" fill="#FBC34E"/>
<path d="M23.6524 9.04346C16.8434 9.04346 11.3047 14.5822 11.3047 21.3912C11.3047 22.6872 12.3566 23.7391 13.6526 23.7391C14.9487 23.7391 16.0005 22.6872 16.0005 21.3912C16.0005 17.172 19.4332 13.7393 23.6524 13.7393C24.9485 13.7393 26.0003 12.6874 26.0003 11.3914C26.0003 10.0953 24.9485 9.04346 23.6524 9.04346Z" fill="white"/>
<path d="M45.552 44.1158C45.1265 44.0773 6.87582 44.0773 6.44564 44.1158C2.87655 44.2268 0 47.2046 0 50.8719C0 54.6092 2.98055 57.6521 6.64418 57.6521H15.3187H36.6813H45.3535C49.0171 57.6521 52 54.6092 52 50.8719C52 47.2046 49.1235 44.2268 45.552 44.1158Z" fill="#EDB34C"/>
</svg>
