<svg width="18" height="18" viewBox="0 0 18 18" fill="none" xmlns="http://www.w3.org/2000/svg">
<path d="M6.20484 0.0937776C5.77804 0.0937776 5.43234 0.439747 5.43206 0.866579V1.28414C5.43206 1.52994 5.23281 1.72947 4.98675 1.72947H3.85824C1.90253 1.72947 0.328125 3.30392 0.328125 5.25969V5.26595C0.328125 5.65684 0.644964 5.97339 1.03554 5.97367H16.62C17.0109 5.97367 17.3275 5.65682 17.3275 5.26595V5.25969C17.3275 3.30392 15.7531 1.72947 13.7973 1.72947H13.4418C13.1961 1.72947 12.9965 1.92873 12.9965 2.1748V2.47858C12.9965 2.69199 12.8237 2.86484 12.6103 2.86484C12.3969 2.86484 12.2238 2.69199 12.2238 2.47858V0.866566C12.2238 0.439748 11.8778 0.0937638 11.451 0.0937638C11.0242 0.0937638 10.6782 0.439734 10.6782 0.866566V1.28413C10.6782 1.52993 10.479 1.72946 10.2329 1.72946H8.19468C7.94888 1.72946 7.74936 1.92871 7.74936 2.17478V2.47856C7.74936 2.69197 7.57624 2.8651 7.36284 2.86483C7.14944 2.86483 6.97659 2.69197 6.97659 2.47856V0.866552C6.97659 0.439734 6.63063 0.09375 6.20381 0.09375L6.20484 0.0937776ZM1.69074 7.51867C0.938376 7.51867 0.328376 8.12868 0.328376 8.88107V13.5635C0.328376 15.5193 1.90278 17.0938 3.85849 17.0938H13.798C15.7537 17.0938 17.3281 15.5193 17.3281 13.5635V8.88107C17.3281 8.12869 16.7181 7.51867 15.9658 7.51867H1.69074ZM3.3356 9.74502H4.19652C4.46382 9.74502 4.67913 9.96033 4.67913 10.2279V11.0889C4.67913 11.3562 4.46382 11.5715 4.19652 11.5715H3.3356C3.0683 11.5715 2.85272 11.3562 2.85272 11.0889V10.2279C2.85272 9.96061 3.06802 9.74502 3.3356 9.74502ZM6.71032 9.74502H7.57125C7.83854 9.74502 8.05385 9.96033 8.05385 10.2279V11.0889C8.05385 11.3562 7.83882 11.5715 7.57125 11.5715H6.71032C6.44303 11.5715 6.22744 11.3562 6.22744 11.0889V10.2279C6.22744 9.96061 6.44275 9.74502 6.71032 9.74502ZM10.085 9.74502H10.946C11.2133 9.74502 11.4286 9.96033 11.4286 10.2279V11.0889C11.4286 11.3562 11.2133 11.5715 10.946 11.5715H10.085C9.81775 11.5715 9.60217 11.3562 9.60217 11.0889V10.2279C9.60217 9.96061 9.81747 9.74502 10.085 9.74502ZM13.4598 9.74502H14.321C14.5883 9.74502 14.8036 9.96033 14.8036 10.2279V11.0889C14.8036 11.3562 14.5883 11.5715 14.321 11.5715H13.4598C13.1925 11.5715 12.9772 11.3562 12.9772 11.0889V10.2279C12.9772 9.96061 13.1925 9.74502 13.4598 9.74502ZM3.3356 12.7556H4.19652C4.46382 12.7556 4.67913 12.9709 4.67913 13.2385V14.0995C4.67913 14.3668 4.46382 14.5821 4.19652 14.5821H3.3356C3.0683 14.5821 2.85272 14.3668 2.85272 14.0995V13.2385C2.85272 12.9712 3.06802 12.7556 3.3356 12.7556ZM6.71032 12.7556H7.57125C7.83854 12.7556 8.05385 12.9709 8.05385 13.2385V14.0995C8.05385 14.3668 7.83882 14.5821 7.57125 14.5821H6.71032C6.44303 14.5821 6.22744 14.3668 6.22744 14.0995V13.2385C6.22744 12.9712 6.44275 12.7556 6.71032 12.7556ZM10.085 12.7556H10.946C11.2133 12.7556 11.4286 12.9709 11.4286 13.2385V14.0995C11.4286 14.3668 11.2133 14.5821 10.946 14.5821H10.085C9.81775 14.5821 9.60217 14.3668 9.60217 14.0995V13.2385C9.60217 12.9712 9.81747 12.7556 10.085 12.7556ZM13.4598 12.7556H14.321C14.5883 12.7556 14.8036 12.9709 14.8036 13.2385V14.0995C14.8036 14.3668 14.5883 14.5821 14.321 14.5821H13.4598C13.1925 14.5821 12.9772 14.3668 12.9772 14.0995V13.2385C12.9772 12.9712 13.1925 12.7556 13.4598 12.7556Z" fill="#F4B755"/>
</svg>
