<svg width="19" height="19" viewBox="0 0 19 19" fill="none" xmlns="http://www.w3.org/2000/svg">
<path fill-rule="evenodd" clip-rule="evenodd" d="M7.74139 16.625H11.2599C13.7307 16.625 14.9661 16.625 15.8536 16.0428C16.2378 15.7908 16.5676 15.4669 16.8243 15.0897C17.4173 14.2184 17.4173 13.0054 17.4173 10.5795C17.4173 8.15366 17.4173 6.94071 16.8243 6.06939C16.5676 5.69219 16.2378 5.36833 15.8536 5.11629C15.2833 4.74219 14.5694 4.60847 13.4764 4.56068C12.9548 4.56068 12.5057 4.17262 12.4034 3.67045C12.25 2.9172 11.5764 2.375 10.794 2.375H8.20734C7.42494 2.375 6.75131 2.9172 6.59787 3.67045C6.49558 4.17262 6.04649 4.56068 5.5249 4.56068C4.43187 4.60847 3.71796 4.74219 3.14772 5.11629C2.76353 5.36833 2.43367 5.69219 2.17696 6.06939C1.58398 6.94071 1.58398 8.15366 1.58398 10.5795C1.58398 13.0054 1.58398 14.2184 2.17696 15.0897C2.43367 15.4669 2.76353 15.7908 3.14772 16.0428C4.03517 16.625 5.27058 16.625 7.74139 16.625ZM9.50065 7.34091C7.67888 7.34091 6.20204 8.7909 6.20204 10.5795C6.20204 12.3682 7.67888 13.8182 9.50065 13.8182C11.3224 13.8182 12.7993 12.3682 12.7993 10.5795C12.7993 8.7909 11.3224 7.34091 9.50065 7.34091ZM9.50065 8.63636C8.40759 8.63636 7.52149 9.50636 7.52149 10.5795C7.52149 11.6527 8.40759 12.5227 9.50065 12.5227C10.5937 12.5227 11.4798 11.6527 11.4798 10.5795C11.4798 9.50636 10.5937 8.63636 9.50065 8.63636ZM13.2391 7.98864C13.2391 7.63091 13.5344 7.34091 13.8988 7.34091H14.7784C15.1428 7.34091 15.4382 7.63091 15.4382 7.98864C15.4382 8.34637 15.1428 8.63636 14.7784 8.63636H13.8988C13.5344 8.63636 13.2391 8.34637 13.2391 7.98864Z" fill="#A8ABAE"/>
</svg>
