<svg width="34" height="33" viewBox="0 0 34 33" fill="none" xmlns="http://www.w3.org/2000/svg">
<path fill-rule="evenodd" clip-rule="evenodd" d="M13.9444 28.875H20.0556C24.347 28.875 26.4927 28.875 28.034 27.8638C28.7013 27.4261 29.2742 26.8636 29.7201 26.2084C30.75 24.6951 30.75 22.5884 30.75 18.375C30.75 14.1616 30.75 12.0549 29.7201 10.5416C29.2742 9.88644 28.7013 9.32393 28.034 8.88618C27.0436 8.23643 25.8037 8.00419 23.9053 7.92118C22.9993 7.92118 22.2193 7.24719 22.0417 6.375C21.7752 5.06672 20.6052 4.125 19.2463 4.125H14.7537C13.3948 4.125 12.2248 5.06672 11.9583 6.375C11.7807 7.24719 11.0007 7.92118 10.0947 7.92118C8.19634 8.00419 6.95639 8.23643 5.96596 8.88618C5.29869 9.32393 4.72577 9.88644 4.27991 10.5416C3.25 12.0549 3.25 14.1616 3.25 18.375C3.25 22.5884 3.25 24.6951 4.27991 26.2084C4.72577 26.8636 5.29869 27.4261 5.96596 27.8638C7.50733 28.875 9.65303 28.875 13.9444 28.875ZM17 12.75C13.8359 12.75 11.2708 15.2684 11.2708 18.375C11.2708 21.4816 13.8359 24 17 24C20.1641 24 22.7292 21.4816 22.7292 18.375C22.7292 15.2684 20.1641 12.75 17 12.75ZM17 15C15.1015 15 13.5625 16.511 13.5625 18.375C13.5625 20.239 15.1015 21.75 17 21.75C18.8985 21.75 20.4375 20.239 20.4375 18.375C20.4375 16.511 18.8985 15 17 15ZM23.4931 13.875C23.4931 13.2537 24.0061 12.75 24.6389 12.75H26.1667C26.7995 12.75 27.3125 13.2537 27.3125 13.875C27.3125 14.4963 26.7995 15 26.1667 15H24.6389C24.0061 15 23.4931 14.4963 23.4931 13.875Z" fill="#F4B755"/>
</svg>
