<svg width="34" height="34" viewBox="0 0 34 34" fill="none" xmlns="http://www.w3.org/2000/svg">
<circle cx="17" cy="17" r="17" fill="#D9D9D9"/>
<path fill-rule="evenodd" clip-rule="evenodd" d="M14.7778 26H19.2222C22.3433 26 23.9038 26 25.0248 25.2646C25.51 24.9462 25.9267 24.5371 26.251 24.0607C27 22.9601 27 21.4279 27 18.3636C27 15.2994 27 13.7672 26.251 12.6666C25.9267 12.1901 25.51 11.781 25.0248 11.4627C24.3044 10.9901 23.4027 10.8212 22.022 10.7609C21.3631 10.7609 20.7959 10.2707 20.6667 9.63636C20.4728 8.68489 19.6219 8 18.6337 8H15.3663C14.3781 8 13.5272 8.68489 13.3333 9.63636C13.2041 10.2707 12.6369 10.7609 11.978 10.7609C10.5973 10.8212 9.69555 10.9901 8.97524 11.4627C8.48995 11.781 8.07328 12.1901 7.74902 12.6666C7 13.7672 7 15.2994 7 18.3636C7 21.4279 7 22.9601 7.74902 24.0607C8.07328 24.5371 8.48995 24.9462 8.97524 25.2646C10.0962 26 11.6568 26 14.7778 26ZM17 14.2727C14.6988 14.2727 12.8333 16.1043 12.8333 18.3636C12.8333 20.623 14.6988 22.4545 17 22.4545C19.3012 22.4545 21.1667 20.623 21.1667 18.3636C21.1667 16.1043 19.3012 14.2727 17 14.2727ZM17 15.9091C15.6193 15.9091 14.5 17.008 14.5 18.3636C14.5 19.7192 15.6193 20.8182 17 20.8182C18.3807 20.8182 19.5 19.7192 19.5 18.3636C19.5 17.008 18.3807 15.9091 17 15.9091ZM21.7222 15.0909C21.7222 14.639 22.0953 14.2727 22.5556 14.2727H23.6667C24.1269 14.2727 24.5 14.639 24.5 15.0909C24.5 15.5428 24.1269 15.9091 23.6667 15.9091H22.5556C22.0953 15.9091 21.7222 15.5428 21.7222 15.0909Z" fill="#1C274C"/>
</svg>
