<svg width="19" height="14" viewBox="0 0 19 14" fill="none" xmlns="http://www.w3.org/2000/svg">
<path fill-rule="evenodd" clip-rule="evenodd" d="M1.45883 6.574C1.13853 7.00013 0.946383 7.54792 0.946383 8.03487V13.0869C0.946383 13.6347 1.39482 14 1.97129 14H4.02112C4.53356 14 4.91789 13.6348 4.91789 13.0869V12.0522H14.078V13.0869C14.078 13.6347 14.5264 14 15.0389 14H17.0887C17.6652 14 18.0496 13.6348 18.0496 13.0869V8.03487C18.0496 7.54792 17.7934 7.00013 17.5371 6.574L18.3699 6.45224C19.3948 6.33047 19.3308 3.5915 16.9607 4.99137C16.3201 2.86094 15.9998 0 13.0533 0H5.94294C2.93242 0 2.61199 2.86073 2.09968 4.99137C-0.334438 3.59142 -0.39847 6.33049 0.626444 6.45224L1.45921 6.574H1.45883ZM2.80403 7.73051C4.02109 7.73051 8.50518 10.1044 2.86805 9.43481C1.71499 9.31305 1.90717 7.66956 2.80403 7.73051ZM16.1917 7.73051C15.0386 7.73051 10.4267 10.1044 16.1277 9.43481C17.2807 9.31305 17.1526 7.66956 16.1917 7.73051ZM15.6792 5.35664C15.2949 3.77401 15.0386 1.27848 13.0529 1.27848H5.94261C3.95693 1.27848 3.70064 3.95662 3.31631 5.35664C7.47999 6.2088 11.5795 6.2088 15.6791 5.35664H15.6792Z" fill="#F4B755"/>
</svg>
