<svg width="12" height="16" viewBox="0 0 12 16" fill="none" xmlns="http://www.w3.org/2000/svg">
<path d="M8.11289 2.4666C8.11289 3.8288 7.00849 4.93306 5.64629 4.93306C4.28409 4.93306 3.17969 3.8288 3.17969 2.4666C3.17969 1.10427 4.28409 0 5.64629 0C7.00849 0 8.11289 1.10427 8.11289 2.4666Z" fill="black" fill-opacity="0.3"/>
<path d="M10.9686 8.13768L8.75449 5.9041C8.34657 5.49618 7.7834 5.26318 7.20072 5.26318H4.11269C3.53 5.26318 2.96683 5.4962 2.55891 5.9041L0.305945 8.13768C-0.101982 8.54561 -0.101982 9.24479 0.305945 9.63319C0.713872 10.0799 1.39353 10.0605 1.82084 9.63319L3.18034 8.2737V14.4693C3.18034 15.0519 3.64649 15.5375 4.24857 15.5375C4.83126 15.5375 5.3168 15.0519 5.3168 14.4693V12.1387C5.3168 11.9639 5.47219 11.8085 5.64695 11.8085C5.82172 11.8085 5.97711 11.9639 5.97711 12.1387V14.4693C5.97711 15.0519 6.44326 15.5375 7.04534 15.5375C7.62803 15.5375 8.11357 15.0519 8.11357 14.4693V8.29312L9.47306 9.65261C9.88099 10.0605 10.5606 10.0799 10.988 9.65261C11.3959 9.24469 11.3959 8.5455 10.9686 8.13771L10.9686 8.13768Z" fill="black" fill-opacity="0.3"/>
</svg>
