<svg width="17" height="17" viewBox="0 0 17 17" fill="none" xmlns="http://www.w3.org/2000/svg">
<path d="M8.5 0C3.80615 0 0 3.80615 0 8.5C0 13.1939 3.80615 17 8.5 17C13.1939 17 17 13.1939 17 8.5C16.9946 3.80806 13.1919 0.00543233 8.5 0ZM13.3565 9.1065H8.5C8.16534 9.1065 7.89337 8.83451 7.89337 8.49987V3.64337C7.89337 3.30698 8.16536 3.03498 8.5 3.03498C8.83464 3.03498 9.10663 3.30697 9.10663 3.64337V7.89337H13.3566C13.693 7.89337 13.965 8.16536 13.965 8.5C13.965 8.83464 13.693 9.10663 13.3566 9.10663L13.3565 9.1065Z" fill="#F4B755"/>
</svg>
