<svg width="17" height="18" viewBox="0 0 17 18" fill="none" xmlns="http://www.w3.org/2000/svg">
<path d="M14.3702 12.7895C13.3954 12.5526 12.7862 11.2501 13.8828 10.1842C14.9795 9.11843 15.5888 8.52633 15.5888 8.52633C17.3976 6.76856 17.1333 5.02165 16.6197 3.8923C16.295 3.17793 15.7762 2.56536 15.1579 2.06677C11.3556 -0.999468 5.62206 -0.653851 2.25487 3.10311C-0.751623 6.45779 -0.751623 11.5422 2.25487 14.8969C5.81777 18.8724 12.0305 19.0279 15.8007 15.364C16.2935 14.9103 16.5546 13.1432 14.3701 12.7895L14.3702 12.7895ZM2.08566 6.841C2.08566 6.05609 2.74034 5.41988 3.54804 5.41988C4.35574 5.41988 5.01042 6.05609 5.01042 6.841C5.01042 7.62592 4.35574 8.26213 3.54804 8.26213C2.74034 8.26213 2.08566 7.62575 2.08566 6.841ZM4.3778 13.2632C3.5701 13.2632 2.91542 12.627 2.91542 11.8421C2.91542 11.0571 3.5701 10.4209 4.3778 10.4209C5.1855 10.4209 5.84018 11.0571 5.84018 11.8421C5.84018 12.627 5.1855 13.2632 4.3778 13.2632ZM7.30234 4.67265C6.49465 4.67265 5.83997 4.03643 5.83997 3.25152C5.83997 2.46661 6.49465 1.83039 7.30234 1.83039C8.11004 1.83039 8.76472 2.46661 8.76472 3.25152C8.76472 4.03656 8.11004 4.67265 7.30234 4.67265ZM10.8833 3.99909C10.8833 3.21417 11.5381 2.57796 12.3456 2.57796C13.1533 2.57796 13.808 3.21417 13.808 3.99909C13.808 4.784 13.1533 5.42022 12.3456 5.42022C11.5381 5.42022 10.8833 4.78383 10.8833 3.99909Z" fill="#A8ABAE"/>
</svg>
