<svg width="25" height="13" viewBox="0 0 25 13" fill="none" xmlns="http://www.w3.org/2000/svg">
<path d="M3.4811 11.4822H20.916C20.916 10.4141 21.7775 9.58702 22.8112 9.58702V3.48843C21.7431 3.48843 20.916 2.62702 20.916 1.59326H3.4811C3.4811 2.66135 2.61969 3.48843 1.58594 3.48843V9.58727C2.61969 9.58703 3.4811 10.4484 3.4811 11.4822ZM12.1986 2.73026C14.3004 2.73026 15.9889 4.41869 15.9889 6.52059C15.9889 8.62249 14.3005 10.3109 12.1986 10.3109C10.0967 10.3109 8.40824 8.62249 8.40824 6.52059C8.40824 4.45308 10.0967 2.73026 12.1986 2.73026Z" fill="black" fill-opacity="0.3"/>
<path d="M0.103516 0.214844V12.8603H24.2919L24.2917 0.214844H0.103516ZM23.5339 12.0678H0.861556V0.972884H23.4994L23.4992 12.0678H23.5339Z" fill="black" fill-opacity="0.3"/>
</svg>
