<svg width="11" height="15" viewBox="0 0 11 15" fill="none" xmlns="http://www.w3.org/2000/svg">
<path d="M6.9745 8.29495L8.529 8.82056C9.24171 9.06177 9.66289 9.4731 9.74964 10.0981L9.9021 11.2708C9.97993 11.8729 8.94048 11.878 8.75338 11.6261C7.96188 10.5563 6.64612 9.88277 5.21672 9.88277C4.63502 9.88277 4.07275 9.99501 3.55604 10.1999L2.34658 8.67115L3.45769 8.29504C3.97734 8.59344 4.57615 8.76273 5.21697 8.76273C5.85647 8.76261 6.45586 8.59331 6.97445 8.29492L6.9745 8.29495Z" fill="#A8ABAE"/>
<path d="M1.47307 9.0083L2.74805 10.6187C2.33458 10.8915 1.97153 11.2306 1.67988 11.6256C1.49313 11.8775 0.452622 11.8724 0.531167 11.2703L0.682915 10.0976C0.750781 9.61282 1.02261 9.25642 1.4731 9.00833L1.47307 9.0083Z" fill="#A8ABAE"/>
<path fill-rule="evenodd" clip-rule="evenodd" d="M5.24447 10.314C6.69741 10.314 7.96928 11.1004 8.66602 12.2668C8.65486 12.3236 8.64905 12.3809 8.64905 12.4388L7.91678 12.8385C7.39937 11.8926 6.39599 11.2479 5.2443 11.2479C4.09367 11.2479 3.09148 11.8916 2.57182 12.8356L1.84466 12.4385C1.84466 12.3786 1.83766 12.3176 1.82686 12.2587C2.52496 11.0963 3.79403 10.314 5.24447 10.314Z" fill="#A8ABAE"/>
<path fill-rule="evenodd" clip-rule="evenodd" d="M5.2438 12.5698C6.12295 12.5698 6.87077 12.9588 7.12408 13.4932H7.70297C7.70771 13.5424 7.71187 13.5927 7.72148 13.6399L7.93219 14.6251C7.93338 14.6281 7.93409 14.6312 7.93409 14.635C7.94524 14.6783 7.95995 14.7187 7.97656 14.7582H2.51637C2.53298 14.7187 2.54769 14.6783 2.55884 14.635C2.55955 14.6312 2.55955 14.628 2.56074 14.6251L2.77146 13.6399C2.78225 13.5927 2.78617 13.5424 2.78996 13.4932H3.36277C3.61596 12.9586 4.36378 12.5698 5.24366 12.5698H5.2438Z" fill="#A8ABAE"/>
<path d="M0.552194 12.4775C0.208612 12.9034 -0.110429 13.642 0.0362129 14.2472C0.243012 15.0998 2.03954 15.2669 2.21467 14.5494L2.42503 13.5651C2.48341 13.2945 2.41732 13.0494 2.20661 12.9754C2.02069 12.9107 1.4901 12.7393 1.4901 12.4389C1.4901 11.8584 0.880833 12.0688 0.552194 12.4775Z" fill="#A8ABAE"/>
<path d="M9.94273 12.4775C10.2863 12.9034 10.6064 13.642 10.4594 14.2472C10.2519 15.0998 8.4566 15.2669 8.28135 14.5494L8.06992 13.5651C8.01155 13.2945 8.07882 13.0494 8.28918 12.9754C8.47439 12.9107 9.00483 12.7393 9.00483 12.4389C9.00483 11.8584 9.61431 12.0688 9.94273 12.4775Z" fill="#A8ABAE"/>
<path fill-rule="evenodd" clip-rule="evenodd" d="M5.24514 2.97852C4.4431 2.97852 2.85537 3.25816 2.85537 3.25816C2.7391 3.49628 2.6169 3.73062 2.50988 3.97275C2.34532 4.34282 2.26547 4.74441 2.26357 5.14902C2.26357 6.79476 3.59844 8.12951 5.24488 8.12951C6.89193 8.12951 8.22656 6.79464 8.22656 5.14902C8.22431 4.7442 8.14375 4.34282 7.98144 3.97275C7.87407 3.73071 7.75103 3.49626 7.63488 3.25816C7.63524 3.25852 6.04778 2.97852 5.24514 2.97852ZM3.40079 4.38613C3.95771 4.56363 4.60372 4.65202 5.24535 4.65617V4.65296L5.24654 4.65617C5.88735 4.65225 6.533 4.56268 7.09028 4.38518C7.19137 4.62722 7.24452 4.88728 7.24559 5.14925C7.24559 6.25371 6.35089 7.14939 5.24536 7.14939C4.14017 7.14939 3.24428 6.25374 3.24428 5.14925C3.24606 4.8874 3.29935 4.62733 3.40079 4.38613Z" fill="#A8ABAE"/>
<path d="M5.24452 0C6.68178 0 11.061 1.25314 7.86788 2.78875C7.86788 2.78875 6.12367 2.53734 5.24452 2.48751C5.2438 2.48751 5.24452 2.48537 5.24452 2.48537V2.48466L5.2438 2.48537C5.2438 2.48537 5.24452 2.48751 5.2438 2.48751C4.36465 2.53757 2.62044 2.78875 2.62044 2.78875C-0.572699 1.25311 3.80653 0 5.24452 0Z" fill="#A8ABAE"/>
</svg>
