<svg width="18" height="20" viewBox="0 0 18 20" fill="none" xmlns="http://www.w3.org/2000/svg">
<path d="M15.9303 0.786664C16.515 0.529403 16.8074 0.400773 16.9868 0.457268C17.1423 0.506243 17.2641 0.627971 17.3133 0.783432C17.37 0.962764 17.2417 1.25526 16.9851 1.84025L9.70378 18.4418C9.47217 18.9698 9.35637 19.2339 9.19446 19.3147C9.05386 19.3849 8.88845 19.3849 8.74784 19.3147C8.58594 19.2339 8.47013 18.9698 8.23852 18.4418L0.957157 1.84025C0.700584 1.25526 0.572297 0.962765 0.629003 0.783433C0.678161 0.627972 0.800031 0.506243 0.95555 0.457268C1.13495 0.400773 1.42729 0.529404 2.01198 0.786666L8.64896 3.70694C8.76765 3.75916 8.82699 3.78527 8.88863 3.79559C8.94327 3.80473 8.99904 3.80473 9.05368 3.79559C9.11532 3.78527 9.17466 3.75916 9.29334 3.70694L15.9303 0.786664Z" fill="#F4B755"/>
</svg>
