<svg width="14" height="19" viewBox="0 0 14 19" fill="none" xmlns="http://www.w3.org/2000/svg">
<path fill-rule="evenodd" clip-rule="evenodd" d="M7.14648 0.537598C3.55919 0.537598 0.646484 3.41166 0.646484 6.95166C0.646484 8.13617 1.16465 9.71527 1.92105 11.3492C3.00438 13.6893 4.56251 16.1586 5.589 17.6934C5.92768 18.2188 6.51509 18.5376 7.14656 18.5376C7.78053 18.5376 8.36916 18.2164 8.70716 17.6878C9.73053 16.1577 11.2887 13.6893 12.3719 11.3492C13.1283 9.71513 13.6465 8.136 13.6465 6.95166C13.6465 3.41179 10.7339 0.537598 7.14648 0.537598ZM7.14648 3.28648C5.35248 3.28648 3.89648 4.72323 3.89648 6.49351C3.89648 8.26379 5.35248 9.70054 7.14648 9.70054C8.94048 9.70054 10.3965 8.26379 10.3965 6.49351C10.3965 4.72323 8.94048 3.28648 7.14648 3.28648ZM7.14648 4.50821C8.25706 4.50821 9.15839 5.39762 9.15839 6.49351C9.15839 7.5894 8.25706 8.47882 7.14648 8.47882C6.03591 8.47882 5.13458 7.5894 5.13458 6.49351C5.13458 5.39762 6.03591 4.50821 7.14648 4.50821Z" fill="black" fill-opacity="0.3"/>
</svg>
