<svg width="26" height="18" viewBox="0 0 26 18" fill="none" xmlns="http://www.w3.org/2000/svg">
<path d="M19.9825 4.32593L20.8718 5.28443L22.0582 4.73492L21.4214 5.87685L22.3107 6.8354L21.0278 6.58261L20.3911 7.72459L20.235 6.42641L18.9521 6.17362L20.1385 5.62416L19.9825 4.32593Z" fill="white"/>
<path d="M0 0.000549316H25.9999V17.3336H0V0.000549316Z" fill="white"/>
<path d="M6.5 0H26V17.3336H6.5V0Z" fill="#01411C"/>
<path d="M18.378 10.8401C16.8019 11.9789 14.601 11.6244 13.4622 10.0483C12.3233 8.47212 12.6778 6.27119 14.254 5.13241C14.7454 4.77735 15.2975 4.56747 15.8593 4.49445C14.7786 4.33281 13.6363 4.57636 12.6805 5.26688C10.7407 6.66856 10.3044 9.37735 11.706 11.3173C13.1076 13.2571 15.8164 13.6934 17.7563 12.2917C18.712 11.6012 19.3019 10.5932 19.4878 9.51624C19.242 10.0266 18.8694 10.4849 18.378 10.8401ZM18.3105 4.44646L19.1983 5.40328L20.3827 4.85474L19.7469 5.99464L20.6347 6.95156L19.3541 6.69928L18.7184 7.83933L18.5626 6.54333L17.2819 6.291L18.4663 5.74245L18.3105 4.44646Z" fill="white"/>
</svg>
