<svg width="23" height="22" viewBox="0 0 23 22" fill="none" xmlns="http://www.w3.org/2000/svg">
<path d="M11.6641 0.166509C10.1223 0.166122 8.59897 0.501184 7.19968 1.14845C5.8004 1.79571 4.55869 2.73967 3.56073 3.91484L2.0874 2.60401C1.93116 2.46698 1.73881 2.37778 1.53328 2.34705C1.32775 2.31631 1.11772 2.34534 0.928229 2.43068C0.738158 2.51612 0.576764 2.65456 0.463396 2.82942C0.350027 3.00427 0.289497 3.20812 0.289062 3.41651V7.74984C0.289063 8.03716 0.403199 8.31271 0.606363 8.51587C0.809528 8.71904 1.08508 8.83318 1.3724 8.83318H6.2474C6.46562 8.83253 6.67857 8.76599 6.85834 8.64228C7.03812 8.51856 7.17634 8.34344 7.2549 8.13984C7.33476 7.93352 7.34955 7.70769 7.29726 7.49271C7.24496 7.27774 7.12811 7.08393 6.9624 6.93734L5.1749 5.34484C5.9745 4.40078 6.97022 3.6423 8.09277 3.12219C9.21531 2.60207 10.4377 2.33282 11.6749 2.33318C13.2637 2.33292 14.8219 2.7694 16.1794 3.59491C17.5369 4.42042 18.6413 5.6032 19.372 7.01399C20.1027 8.42477 20.4315 10.0093 20.3226 11.5943C20.2136 13.1793 19.671 14.7039 18.7541 16.0014C17.8372 17.2989 16.5813 18.3194 15.1236 18.9514C13.666 19.5833 12.0626 19.8025 10.4888 19.5848C8.91502 19.3671 7.43135 18.721 6.19996 17.717C4.96856 16.7131 4.03682 15.39 3.50656 13.8923C3.41175 13.6208 3.21296 13.3981 2.95392 13.2732C2.69489 13.1482 2.39683 13.1313 2.12531 13.2261C1.8538 13.3209 1.63107 13.5197 1.50612 13.7787C1.38118 14.0378 1.36425 14.3358 1.45906 14.6073C2.12063 16.4806 3.28459 18.1359 4.82364 19.3922C6.36269 20.6485 8.21756 21.4574 10.1854 21.7304C12.1532 22.0034 14.1583 21.73 15.9812 20.9402C17.8041 20.1503 19.3747 18.8744 20.5213 17.2519C21.6678 15.6295 22.3461 13.723 22.4821 11.741C22.618 9.75892 22.2062 7.77768 21.2919 6.01391C20.3775 4.25014 18.9958 2.77176 17.2977 1.74047C15.5997 0.70917 13.6507 0.164668 11.6641 0.166509Z" fill="white"/>
</svg>
