<svg width="24" height="22" viewBox="0 0 24 22" fill="none" xmlns="http://www.w3.org/2000/svg">
<path d="M1.79688 8.66327L10.7633 1.49009C11.5118 0.891324 12.5754 0.891324 13.3238 1.49009L22.2902 8.66327" stroke="black" stroke-width="1.71215" stroke-linecap="round" stroke-linejoin="round"/>
<path d="M9.46041 2.56594L5.36174 5.89611C4.61757 6.50075 4.24548 6.80307 4.04656 7.22098C3.84766 7.63889 3.84766 8.11831 3.84766 9.07716V12.762C3.84766 16.6262 3.84766 18.5584 5.04813 19.7588C6.24861 20.9593 8.18073 20.9593 12.045 20.9593C15.9092 20.9593 17.8414 20.9593 19.0418 19.7588C20.2423 18.5584 20.2423 16.6262 20.2423 12.762V9.07716C20.2423 8.11831 20.2423 7.63889 20.0435 7.22098C19.8445 6.80307 19.4724 6.50075 18.7283 5.89611L14.6296 2.56594C13.3916 1.56007 12.7726 1.05713 12.045 1.05713C11.3174 1.05713 10.6984 1.56007 9.46041 2.56594Z" stroke="black" stroke-width="2"/>
<path d="M9.73828 15.0674H14.3493" stroke="black" stroke-width="1.71215" stroke-linecap="round"/>
</svg>
