<svg width="32" height="32" viewBox="0 0 32 32" fill="none" xmlns="http://www.w3.org/2000/svg">
<path d="M2.66602 13.3334L14.3335 3.99939C15.3073 3.22026 16.6913 3.22026 17.6652 3.99939L29.3327 13.3334" stroke="white" stroke-width="1.71215" stroke-linecap="round" stroke-linejoin="round"/>
<path d="M12.6375 5.39935L7.30416 9.73269C6.33582 10.5195 5.85165 10.9128 5.59281 11.4566C5.33398 12.0004 5.33398 12.6243 5.33398 13.872V18.6668C5.33398 23.695 5.33398 26.2093 6.89608 27.7713C8.45818 29.3334 10.9723 29.3334 16.0007 29.3334C21.0289 29.3334 23.5432 29.3334 25.1052 27.7713C26.6673 26.2093 26.6673 23.695 26.6673 18.6668V13.872C26.6673 12.6243 26.6673 12.0004 26.4085 11.4566C26.1496 10.9128 25.6655 10.5195 24.6972 9.73269L19.3639 5.39935C17.7529 4.09047 16.9475 3.43604 16.0007 3.43604C15.0539 3.43604 14.2484 4.09047 12.6375 5.39935Z" stroke="white" stroke-width="2"/>
<path d="M13 21.6665H19" stroke="white" stroke-width="1.71215" stroke-linecap="round"/>
</svg>
