<svg width="1024" height="1024" viewBox="0 0 1024 1024" fill="none" xmlns="http://www.w3.org/2000/svg">
<rect width="1024" height="1024" fill="white"/>
<path fill-rule="evenodd" clip-rule="evenodd" d="M440.823 518.754C448.742 518.754 454.681 524.696 454.681 532.224C454.681 539.355 448.742 545.694 440.823 545.694C433.3 545.694 426.965 539.355 426.965 532.224C426.965 524.696 433.3 518.754 440.823 518.754ZM464.58 538.166H562.381V542.524H464.58V538.166ZM464.58 529.451H562.381V533.808H464.58V529.451ZM464.58 523.112V522.319H562.381V525.093C562.777 525.489 562.777 525.489 563.173 525.885H562.381V526.677H464.58V523.112ZM580.199 502.906L449.534 501.322C449.534 489.436 453.89 477.551 459.037 468.042C470.916 446.649 488.734 453.78 518.43 453.78C553.67 453.78 568.321 448.63 579.408 482.305C582.575 491.417 588.119 502.906 580.199 502.906ZM484.774 569.861C484.774 564.711 484.774 559.164 484.774 554.014C504.968 554.014 529.121 554.014 550.899 554.014C550.899 563.522 550.899 560.353 550.899 569.861C534.269 569.861 500.612 569.861 484.774 569.861ZM575.844 527.47C577.428 521.527 582.971 517.169 589.306 517.169C597.226 517.169 603.165 523.112 603.165 530.639C603.165 534.997 601.185 538.959 597.622 541.336V541.732H597.226C594.85 543.317 592.474 544.109 589.306 544.109C581.783 544.109 575.448 538.166 575.448 530.639C575.448 529.451 575.844 528.262 575.844 527.47ZM603.165 505.68C616.231 505.68 622.171 500.925 616.231 488.248C611.48 488.248 607.124 489.04 604.353 489.436C595.246 491.021 598.018 491.417 593.266 492.606C592.87 480.72 582.575 444.668 558.818 443.875C552.483 443.479 548.127 444.668 543.772 439.914C542.98 438.725 542.584 437.14 541.792 436.348C540.208 432.782 540.208 431.594 537.436 429.217C531.101 423.274 502.196 423.274 496.653 427.632C493.089 430.009 487.942 437.933 486.754 442.291C464.976 442.291 460.621 442.291 451.118 455.761C446.366 462.496 438.051 480.72 437.655 491.417C430.924 489.436 436.467 488.644 426.569 488.248C421.817 488.248 416.67 488.248 411.918 488.248C407.563 506.472 416.274 504.095 433.696 504.095L423.005 508.057C409.542 514.396 409.146 526.677 409.146 538.959C409.146 564.711 409.938 568.276 429.34 577.785C429.34 590.066 426.173 603.14 451.91 599.178C451.91 599.178 457.057 597.594 457.453 597.197C463.788 593.236 460.225 587.689 462.601 580.954C464.184 576.2 465.372 577.388 472.103 577.388L550.107 577.785C556.046 577.785 571.488 575.408 574.656 578.973C579.804 584.124 571.092 592.839 581.783 597.99C586.535 600.367 599.205 599.971 603.957 596.801C610.292 592.443 609.104 584.916 609.104 574.615C609.5 573.427 619.795 567.088 621.775 554.41V529.054C618.607 515.98 613.46 514.396 603.165 505.68Z" fill="#3E3D3D"/>
<path fill-rule="evenodd" clip-rule="evenodd" d="M71 630.873L363.611 320.663C500.612 195.47 713.241 286.195 745.709 446.649L655.035 541.732C683.148 402.672 508.135 303.627 399.643 419.312L141.48 697.035L71 630.873Z" fill="#FD9700"/>
<path fill-rule="evenodd" clip-rule="evenodd" d="M952 396.334L657.013 704.563C518.824 828.568 306.592 736.258 275.707 575.408L367.173 481.117C337.872 619.781 512.093 720.411 621.773 605.518L881.916 329.776L952 396.334Z" fill="#1A2028"/>
</svg>
