<svg width="881" height="500" viewBox="0 0 881 500" fill="none" xmlns="http://www.w3.org/2000/svg">
<path fill-rule="evenodd" clip-rule="evenodd" d="M369.823 256.754C377.742 256.754 383.681 262.696 383.681 270.224C383.681 277.355 377.742 283.694 369.823 283.694C362.3 283.694 355.965 277.355 355.965 270.224C355.965 262.696 362.3 256.754 369.823 256.754ZM393.58 276.166H491.381V280.524H393.58V276.166ZM393.58 267.451H491.381V271.808H393.58V267.451ZM393.58 261.112V260.319H491.381V263.093C491.777 263.489 491.777 263.489 492.173 263.885H491.381V264.677H393.58V261.112ZM509.199 240.906L378.534 239.322C378.534 227.436 382.89 215.551 388.037 206.042C399.916 184.649 417.734 191.78 447.43 191.78C482.67 191.78 497.321 186.63 508.408 220.305C511.575 229.417 517.119 240.906 509.199 240.906ZM413.774 307.861C413.774 302.711 413.774 297.164 413.774 292.014C433.968 292.014 458.121 292.014 479.899 292.014C479.899 301.522 479.899 298.353 479.899 307.861C463.269 307.861 429.612 307.861 413.774 307.861ZM504.844 265.47C506.428 259.527 511.971 255.169 518.306 255.169C526.226 255.169 532.165 261.112 532.165 268.639C532.165 272.997 530.185 276.959 526.622 279.336V279.732H526.226C523.85 281.317 521.474 282.109 518.306 282.109C510.783 282.109 504.448 276.166 504.448 268.639C504.448 267.451 504.844 266.262 504.844 265.47ZM532.165 243.68C545.231 243.68 551.171 238.925 545.231 226.248C540.48 226.248 536.124 227.04 533.353 227.436C524.246 229.021 527.018 229.417 522.266 230.606C521.87 218.72 511.575 182.668 487.818 181.875C481.483 181.479 477.127 182.668 472.772 177.914C471.98 176.725 471.584 175.14 470.792 174.348C469.208 170.782 469.208 169.594 466.436 167.217C460.101 161.274 431.196 161.274 425.653 165.632C422.089 168.009 416.942 175.933 415.754 180.291C393.976 180.291 389.621 180.291 380.118 193.761C375.366 200.496 367.051 218.72 366.655 229.417C359.924 227.436 365.467 226.644 355.569 226.248C350.817 226.248 345.67 226.248 340.918 226.248C336.563 244.472 345.274 242.095 362.696 242.095L352.005 246.057C338.542 252.396 338.146 264.677 338.146 276.959C338.146 302.711 338.938 306.276 358.34 315.785C358.34 328.066 355.173 341.14 380.91 337.178C380.91 337.178 386.057 335.594 386.453 335.197C392.788 331.236 389.225 325.689 391.601 318.954C393.184 314.2 394.372 315.388 401.103 315.388L479.107 315.785C485.046 315.785 500.488 313.408 503.656 316.973C508.804 322.124 500.092 330.839 510.783 335.99C515.535 338.367 528.205 337.971 532.957 334.801C539.292 330.443 538.104 322.916 538.104 312.615C538.5 311.427 548.795 305.088 550.775 292.41V267.054C547.607 253.98 542.46 252.396 532.165 243.68Z" fill="#3E3D3D"/>
<path fill-rule="evenodd" clip-rule="evenodd" d="M0 368.873L292.611 58.663C429.612 -66.5303 642.241 24.1952 674.709 184.649L584.035 279.732C612.148 140.672 437.135 41.6272 328.643 157.312L70.4802 435.035L0 368.873Z" fill="#FD9700"/>
<path fill-rule="evenodd" clip-rule="evenodd" d="M881 134.334L586.013 442.563C447.824 566.568 235.592 474.258 204.707 313.408L296.173 219.117C266.872 357.781 441.093 458.411 550.773 343.518L810.916 67.7759L881 134.334Z" fill="#1A2028"/>
</svg>
