<svg width="20" height="21" viewBox="0 0 20 21" fill="none" xmlns="http://www.w3.org/2000/svg">
<path d="M18.2934 2.30957H17.6032V2.65468C17.6032 3.02465 17.4057 3.36658 17.0855 3.55148C16.7651 3.73639 16.3703 3.73639 16.05 3.55148C15.7296 3.36658 15.5323 3.02465 15.5323 2.65468V2.30957H14.1515V2.65468C14.1515 3.02465 13.9542 3.36658 13.6338 3.55148C13.3135 3.73639 12.9187 3.73639 12.5983 3.55148C12.278 3.36658 12.0805 3.02465 12.0805 2.65468V2.30957H10.6999V2.65468C10.6999 3.02465 10.5026 3.36658 10.1822 3.55148C9.86179 3.73639 9.46713 3.73639 9.14672 3.55148C8.82632 3.36658 8.62898 3.02465 8.62898 2.65468V2.30957H7.24839V2.65468C7.24839 3.02465 7.05091 3.36658 6.73065 3.55148C6.41023 3.73639 6.01542 3.73639 5.69516 3.55148C5.37475 3.36658 5.17742 3.02465 5.17742 2.65468V2.30957H3.79668V2.65468C3.79668 3.02465 3.59935 3.36658 3.27894 3.55148C2.95867 3.73639 2.56386 3.73639 2.24346 3.55148C1.92319 3.36658 1.72571 3.02465 1.72571 2.65468V2.30957H1.03549C0.760873 2.30957 0.497372 2.41864 0.303219 2.61279C0.109066 2.80709 0 3.07044 0 3.34506V4.38054H19.3288V3.34506C19.3288 3.07044 19.2197 2.80709 19.0256 2.61279C18.8314 2.41864 18.5679 2.30957 18.2933 2.30957H18.2934Z" fill="#F4B755"/>
<path d="M3.10638 2.65442V1.27382C3.10638 1.08314 2.95181 0.928711 2.76113 0.928711C2.57059 0.928711 2.41602 1.08314 2.41602 1.27382V2.65442C2.41602 2.8451 2.57059 2.99967 2.76113 2.99967C2.95181 2.99967 3.10638 2.8451 3.10638 2.65442Z" fill="#F4B755"/>
<path d="M5.86719 1.27382V2.65442C5.86719 2.8451 6.02176 2.99967 6.21244 2.99967C6.40298 2.99967 6.55755 2.8451 6.55755 2.65442V1.27382C6.55755 1.08314 6.40298 0.928711 6.21244 0.928711C6.02176 0.928711 5.86719 1.08314 5.86719 1.27382Z" fill="#F4B755"/>
<path d="M12.7715 1.27382V2.65442C12.7715 2.8451 12.9261 2.99967 13.1166 2.99967C13.3073 2.99967 13.4619 2.8451 13.4619 2.65442V1.27382C13.4619 1.08314 13.3073 0.928711 13.1166 0.928711C12.9261 0.928711 12.7715 1.08314 12.7715 1.27382Z" fill="#F4B755"/>
<path d="M9.32031 1.27382V2.65442C9.32031 2.8451 9.47474 2.99967 9.66542 2.99967C9.85611 2.99967 10.0105 2.8451 10.0105 2.65442V1.27382C10.0105 1.08314 9.85611 0.928711 9.66542 0.928711C9.47474 0.928711 9.32031 1.08314 9.32031 1.27382Z" fill="#F4B755"/>
<path d="M16.913 2.65442V1.27382C16.913 1.08314 16.7585 0.928711 16.5679 0.928711C16.3772 0.928711 16.2227 1.08314 16.2227 1.27382V2.65442C16.2227 2.8451 16.3772 2.99967 16.5679 2.99967C16.7585 2.99967 16.913 2.8451 16.913 2.65442Z" fill="#F4B755"/>
<path d="M5.17791 13.6992H14.1518V11.5455C14.1511 11.3086 14.0696 11.0791 13.9206 10.8947C13.7716 10.7105 13.5643 10.5827 13.3327 10.5324C12.1226 10.316 10.8939 10.2205 9.66477 10.2477C8.43587 10.2207 7.20724 10.3159 5.99709 10.532C5.76552 10.5824 5.55808 10.7104 5.40916 10.8946C5.26008 11.0789 5.17846 11.3084 5.17773 11.5455L5.17791 13.6992ZM12.7713 11.2832H13.1164C13.3071 11.2832 13.4617 11.4376 13.4617 11.6283C13.4617 11.819 13.3071 11.9734 13.1164 11.9734H12.7713C12.5806 11.9734 12.4262 11.819 12.4262 11.6283C12.4262 11.4376 12.5806 11.2832 12.7713 11.2832ZM7.59391 11.6283C7.59391 11.4452 7.66657 11.2696 7.79616 11.1402C7.92559 11.0107 8.10111 10.9379 8.28428 10.9379H11.0456H11.0455C11.2286 10.9379 11.4042 11.0107 11.5336 11.1402C11.6632 11.2696 11.7358 11.4453 11.7358 11.6283V12.3186C11.7358 12.5017 11.6632 12.6773 11.5336 12.8068C11.4042 12.9362 11.2286 13.0089 11.0455 13.0089H8.28428C8.10111 13.0089 7.92559 12.9362 7.79616 12.8068C7.66658 12.6773 7.59392 12.5017 7.59392 12.3186L7.59391 11.6283ZM6.21332 11.2832H6.55843C6.74911 11.2832 6.90354 11.4376 6.90354 11.6283C6.90354 11.819 6.74911 11.9734 6.55843 11.9734H6.21332C6.02263 11.9734 5.86806 11.819 5.86806 11.6283C5.86806 11.4376 6.02263 11.2832 6.21332 11.2832Z" fill="#F4B755"/>
<path d="M5.70516 9.90313C5.75456 9.88796 5.80209 9.86861 5.85323 9.85763C5.92805 9.84174 6.00895 9.82758 6.08797 9.8127L6.19458 9.45719C6.15067 9.31331 6.01849 9.2145 5.86796 9.21291H5.52285C5.433 9.21204 5.34661 9.24787 5.28363 9.31186C5.21587 9.37586 5.17745 9.46484 5.17774 9.55802C5.17774 9.64961 5.214 9.73729 5.27871 9.80215C5.34358 9.86687 5.43126 9.90313 5.52285 9.90313H5.70516Z" fill="#F4B755"/>
<path d="M13.6236 9.90312H13.8065C13.8981 9.90312 13.9858 9.86686 14.0506 9.80214C14.1153 9.73728 14.1516 9.6496 14.1516 9.55801C14.1525 9.46815 14.1167 9.38177 14.0527 9.31878C13.9887 9.25103 13.8997 9.2126 13.8065 9.21289H13.4614C13.3109 9.21448 13.1787 9.31329 13.1348 9.45717L13.2414 9.81298C13.3208 9.82742 13.4016 9.84201 13.4764 9.8579C13.5273 9.86859 13.5745 9.88795 13.6236 9.90312Z" fill="#F4B755"/>
<path d="M8.2832 11.6289H11.0448V12.3193H8.2832V11.6289Z" fill="#F4B755"/>
<path d="M12.7715 14.3896H13.807V15.08H12.7715V14.3896Z" fill="#F4B755"/>
<path d="M12.4864 9.69943L11.9704 7.97879V7.97894C11.9273 7.83708 11.8401 7.7127 11.7213 7.624C11.6026 7.53545 11.4585 7.4872 11.3103 7.48633H8.01753C7.86931 7.48719 7.72529 7.53544 7.60655 7.624C7.48781 7.7127 7.40055 7.83708 7.3575 7.97894L6.8418 9.69917H6.84194C7.77905 9.59718 8.72134 9.5498 9.66397 9.55731C10.6067 9.5498 11.5492 9.59733 12.4864 9.69946L12.4864 9.69943Z" fill="#F4B755"/>
<path d="M5.8679 19.5674H1.72597C1.53543 19.5674 1.38086 19.7218 1.38086 19.9125C1.38086 20.1032 1.53543 20.2576 1.72597 20.2576H5.8679C6.05859 20.2576 6.21316 20.1032 6.21316 19.9125C6.21316 19.7218 6.05859 19.5674 5.8679 19.5674Z" fill="#F4B755"/>
<path d="M2.07031 6.45117H3.1058V18.877H2.07031V6.45117Z" fill="#F4B755"/>
<path d="M3.79688 15.7702V17.4961H15.5326V15.7702H12.0809C11.8903 15.7702 11.7358 15.6157 11.7358 15.4251C11.7358 15.2344 11.8903 15.0799 12.0809 15.0799V14.3896H7.24888V15.08V15.0799C7.43942 15.0799 7.59399 15.2344 7.59399 15.4251C7.59399 15.6157 7.43942 15.7702 7.24888 15.7702L3.79688 15.7702Z" fill="#F4B755"/>
<path d="M17.6044 19.5674H13.4624C13.2718 19.5674 13.1172 19.7218 13.1172 19.9125C13.1172 20.1032 13.2718 20.2576 13.4624 20.2576H17.6044C17.7949 20.2576 17.9495 20.1032 17.9495 19.9125C17.9495 19.7218 17.7949 19.5674 17.6044 19.5674Z" fill="#F4B755"/>
<path d="M5.52344 14.3896H6.55892V15.08H5.52344V14.3896Z" fill="#F4B755"/>
<path d="M16.2232 18.877H17.2587V6.45117H16.2227L16.2229 15.4244L16.2232 15.4255L16.2229 15.4265L16.2232 18.877Z" fill="#F4B755"/>
<path d="M0 16.4607C0 16.7353 0.109066 16.9986 0.303219 17.1928C0.497372 17.3869 0.760866 17.4961 1.03549 17.4961H1.3806V6.45087C1.3806 6.26784 1.45326 6.09218 1.58285 5.96275C1.71228 5.83332 1.8878 5.76051 2.07097 5.76051H3.10645C3.28948 5.76051 3.46514 5.83332 3.59457 5.96275C3.724 6.09219 3.79667 6.26785 3.79667 6.45087V15.0798H4.83215V14.2935C4.61936 14.1713 4.48776 13.9447 4.48704 13.6992V11.5454C4.4892 11.1233 4.64638 10.7168 4.92852 10.4029C4.65261 10.2096 4.48792 9.89411 4.48704 9.55725C4.48834 9.28306 4.59798 9.02042 4.79185 8.82656C4.98571 8.6327 5.24835 8.52306 5.52253 8.52175H5.86764C6.0654 8.52291 6.25868 8.58084 6.4244 8.68875L6.6967 7.78067H6.69685C6.78294 7.49695 6.95774 7.24832 7.19551 7.07107C7.43329 6.89396 7.72149 6.79746 8.01805 6.79587H11.3108C11.6076 6.79732 11.8959 6.89367 12.1338 7.07092C12.3716 7.24817 12.5465 7.4968 12.6328 7.78063L12.9051 8.68872C13.0706 8.58095 13.2636 8.52302 13.4613 8.52172H13.8064C14.0806 8.52302 14.3432 8.63267 14.5371 8.82653C14.7309 9.0204 14.8406 9.28303 14.8419 9.55721C14.841 9.89409 14.6763 10.2096 14.4004 10.4029C14.6827 10.7166 14.8397 11.1233 14.8419 11.5454V13.6991C14.8411 13.9447 14.7095 14.1713 14.4968 14.2934V15.0797H15.5322V6.45084C15.5322 6.26781 15.6049 6.09215 15.7343 5.96272C15.8638 5.83329 16.0394 5.76047 16.2225 5.76047H17.2579C17.4411 5.76047 17.6166 5.83328 17.7461 5.96272C17.8756 6.09215 17.9483 6.26782 17.9483 6.45084V17.4961H18.2934C18.568 17.4961 18.8315 17.3869 19.0257 17.1927C19.2198 16.9986 19.3289 16.7353 19.3289 16.4606V5.07031H0.000129787L0 16.4607Z" fill="#F4B755"/>
</svg>
