<svg width="78" height="100" viewBox="0 0 78 100" fill="none" xmlns="http://www.w3.org/2000/svg">
<g filter="url(#filter0_b_1613_9291)">
<rect x="61.4805" y="16.938" width="44.4445" height="44.4445" rx="22.2222" transform="rotate(90 61.4805 16.938)" fill="#1A2028"/>
</g>
<path d="M77.5823 34.1651C76.6016 24.7959 72.1016 16.1155 64.9534 9.80425C57.8051 3.49295 48.5169 -0.000517076 38.8865 5.74046e-08C29.256 0.00051719 19.9682 3.49498 12.8207 9.80705C5.67312 16.1191 1.17412 24.7999 0.194444 34.1693C0.0636271 35.4528 -0.00125234 36.742 4.92913e-05 38.0319C-0.00201468 39.2975 0.0607411 40.5623 0.188081 41.8218C1.70398 64.3721 24.3481 88.6885 37.4878 99.5014C37.8819 99.8249 38.3803 100.002 38.8948 100C39.4093 99.9985 39.9066 99.8189 40.2986 99.493C53.4447 88.5534 76.093 64.0957 77.5834 41.8945C77.843 39.3243 77.8426 36.7353 77.5823 34.1651ZM38.8889 59.0425C34.6398 59.0404 30.4867 57.8061 26.9549 55.4957C23.423 53.1853 20.671 49.9025 19.047 46.0625C17.4229 42.2225 16.9996 37.9977 17.8307 33.9225C18.6618 29.8472 20.7099 26.1045 23.716 23.1676C26.7221 20.2307 30.5512 18.2315 34.7192 17.4229C38.8871 16.6142 43.2066 17.0325 47.1315 18.6247C51.0564 20.2168 54.4103 22.9115 56.7692 26.3679C59.1281 29.8242 60.386 33.887 60.3839 38.0425C60.3745 43.613 58.1062 48.9523 54.0765 52.8892C50.0468 56.8261 44.5849 59.039 38.8889 59.0425Z" fill="#F3B755"/>
<defs>
<filter id="filter0_b_1613_9291" x="9.03516" y="8.93799" width="60.4453" height="60.4443" filterUnits="userSpaceOnUse" color-interpolation-filters="sRGB">
<feFlood flood-opacity="0" result="BackgroundImageFix"/>
<feGaussianBlur in="BackgroundImageFix" stdDeviation="4"/>
<feComposite in2="SourceAlpha" operator="in" result="effect1_backgroundBlur_1613_9291"/>
<feBlend mode="normal" in="SourceGraphic" in2="effect1_backgroundBlur_1613_9291" result="shape"/>
</filter>
</defs>
</svg>
