<svg width="39" height="37" viewBox="0 0 39 37" fill="none" xmlns="http://www.w3.org/2000/svg">
<rect width="39" height="37" rx="10" fill="#F4B755"/>
<path d="M20.9 17.1H15.5C15.2613 17.1 15.0324 17.1948 14.8636 17.3636C14.6948 17.5324 14.6 17.7613 14.6 18C14.6 18.2387 14.6948 18.4676 14.8636 18.6364C15.0324 18.8052 15.2613 18.9 15.5 18.9H20.9C21.1387 18.9 21.3676 18.8052 21.5364 18.6364C21.7052 18.4676 21.8 18.2387 21.8 18C21.8 17.7613 21.7052 17.5324 21.5364 17.3636C21.3676 17.1948 21.1387 17.1 20.9 17.1ZM24.5 13.5H15.5C15.2613 13.5 15.0324 13.5948 14.8636 13.7636C14.6948 13.9324 14.6 14.1613 14.6 14.4C14.6 14.6387 14.6948 14.8676 14.8636 15.0364C15.0324 15.2052 15.2613 15.3 15.5 15.3H24.5C24.7387 15.3 24.9676 15.2052 25.1364 15.0364C25.3052 14.8676 25.4 14.6387 25.4 14.4C25.4 14.1613 25.3052 13.9324 25.1364 13.7636C24.9676 13.5948 24.7387 13.5 24.5 13.5ZM26.3 9H13.7C12.9839 9 12.2972 9.28446 11.7908 9.79081C11.2845 10.2972 11 10.9839 11 11.7V20.7C11 21.4161 11.2845 22.1028 11.7908 22.6092C12.2972 23.1155 12.9839 23.4 13.7 23.4H24.131L27.461 26.739C27.5451 26.8224 27.6448 26.8884 27.7545 26.9332C27.8641 26.978 27.9816 27.0007 28.1 27C28.2181 27.003 28.3352 26.9784 28.442 26.928C28.6064 26.8605 28.7471 26.7458 28.8464 26.5985C28.9457 26.4511 28.9991 26.2777 29 26.1V11.7C29 10.9839 28.7155 10.2972 28.2092 9.79081C27.7028 9.28446 27.0161 9 26.3 9ZM27.2 23.931L25.139 21.861C25.0549 21.7776 24.9552 21.7116 24.8455 21.6668C24.7359 21.622 24.6184 21.5993 24.5 21.6H13.7C13.4613 21.6 13.2324 21.5052 13.0636 21.3364C12.8948 21.1676 12.8 20.9387 12.8 20.7V11.7C12.8 11.4613 12.8948 11.2324 13.0636 11.0636C13.2324 10.8948 13.4613 10.8 13.7 10.8H26.3C26.5387 10.8 26.7676 10.8948 26.9364 11.0636C27.1052 11.2324 27.2 11.4613 27.2 11.7V23.931Z" fill="white"/>
</svg>
