<svg width="29" height="23" viewBox="0 0 29 23" fill="none" xmlns="http://www.w3.org/2000/svg">
<path d="M16.7981 19.797H11.9986C11.57 19.797 11.1739 19.5684 10.9596 19.1972C10.7452 18.826 10.7452 18.3684 10.9596 17.9972C11.1739 17.626 11.57 17.3975 11.9986 17.3975H16.7981C17.2267 17.3975 17.6228 17.626 17.8371 17.9972C18.0515 18.3684 18.0515 18.826 17.8371 19.1972C17.6228 19.5684 17.2267 19.797 16.7981 19.797Z" fill="white"/>
<path d="M10.7974 10.1986C10.7974 10.5298 10.5289 10.7984 10.1974 10.7984C9.86621 10.7984 9.59766 10.5298 9.59766 10.1986C9.59766 9.86719 9.86621 9.59863 10.1974 9.59863C10.5289 9.59863 10.7974 9.86719 10.7974 10.1986Z" fill="white"/>
<path d="M10.7974 12.5978C10.7974 12.9292 10.5289 13.1978 10.1974 13.1978C9.86621 13.1978 9.59766 12.9292 9.59766 12.5978C9.59766 12.2666 9.86621 11.998 10.1974 11.998C10.5289 11.998 10.7974 12.2666 10.7974 12.5978Z" fill="white"/>
<path d="M10.7974 14.9979C10.7974 15.3292 10.5289 15.5979 10.1974 15.5979C9.86621 15.5979 9.59766 15.3292 9.59766 14.9979C9.59766 14.6667 9.86621 14.3979 10.1974 14.3979C10.5289 14.3979 10.7974 14.6667 10.7974 14.9979Z" fill="white"/>
<path d="M3.60015 11.9984C3.60015 12.3296 3.33159 12.5982 3.00017 12.5982C2.66894 12.5982 2.40039 12.3296 2.40039 11.9984C2.40039 11.667 2.66895 11.3984 3.00017 11.3984C3.33159 11.3984 3.60015 11.667 3.60015 11.9984Z" fill="white"/>
<path d="M3.60015 14.3981C3.60015 14.7295 3.33159 14.9981 3.00017 14.9981C2.66894 14.9981 2.40039 14.7295 2.40039 14.3981C2.40039 14.0669 2.66895 13.7983 3.00017 13.7983C3.33159 13.7983 3.60015 14.0669 3.60015 14.3981Z" fill="white"/>
<path d="M3.60015 16.7977C3.60015 17.129 3.33159 17.3977 3.00017 17.3977C2.66894 17.3977 2.40039 17.129 2.40039 16.7977C2.40039 16.4665 2.66895 16.1978 3.00017 16.1978C3.33159 16.1978 3.60015 16.4665 3.60015 16.7977Z" fill="white"/>
<path d="M18.5973 10.7984H12.598C12.2668 10.7984 11.998 10.5298 11.998 10.1986C11.998 9.86719 12.2668 9.59863 12.598 9.59863H18.5973C18.9286 9.59863 19.1971 9.86719 19.1971 10.1986C19.1971 10.5298 18.9285 10.7984 18.5973 10.7984Z" fill="white"/>
<path d="M18.5973 13.1983H12.598C12.2668 13.1983 11.998 12.9297 11.998 12.5983C11.998 12.2671 12.2668 11.9985 12.598 11.9985H18.5973C18.9286 11.9985 19.1971 12.2671 19.1971 12.5983C19.1971 12.9297 18.9285 13.1983 18.5973 13.1983Z" fill="white"/>
<path d="M18.5973 15.5979H12.598C12.2668 15.5979 11.998 15.3292 11.998 14.9979C11.998 14.6667 12.2668 14.3979 12.598 14.3979H18.5973C18.9286 14.3979 19.1971 14.6667 19.1971 14.9979C19.1971 15.3292 18.9285 15.5979 18.5973 15.5979Z" fill="white"/>
<path d="M10.1976 2.99951H18.5962C18.9275 2.99951 19.1962 3.33074 19.1962 3.59949V7.19897C19.1962 7.53019 18.9277 7.79895 18.5962 7.79895H10.1976C9.86641 7.79895 9.59766 7.46773 9.59766 7.19897V3.59949C9.59766 3.26827 9.86621 2.99951 10.1976 2.99951Z" fill="white"/>
<path d="M21.598 4.7998H25.7975C26.1287 4.7998 26.3975 5.13103 26.3975 5.39979V8.99926C26.3975 9.33049 26.1289 9.59924 25.7975 9.59924H21.598C21.2668 9.59924 20.998 9.26802 20.998 8.99926V5.39979C20.998 5.06856 21.2666 4.7998 21.598 4.7998Z" fill="white"/>
<path d="M3.00037 4.7998H7.19983C7.53105 4.7998 7.79981 5.13103 7.79981 5.39979V8.99926C7.79981 9.33049 7.53126 9.59924 7.19983 9.59924H3.00037C2.66915 9.59924 2.40039 9.26802 2.40039 8.99926V5.39979C2.40039 5.06856 2.66895 4.7998 3.00037 4.7998Z" fill="white"/>
<path d="M26.9963 1.79974H22.1971C22.1971 1.32249 22.0074 0.864697 21.6698 0.527272C21.3323 0.18962 20.8745 0 20.3973 0H8.39871C7.92146 0 7.46367 0.189615 7.12625 0.527272C6.78859 0.864723 6.59897 1.3225 6.59897 1.79974H1.79974C1.32249 1.79974 0.864697 1.98935 0.527066 2.32701C0.189615 2.66446 0 3.12224 0 3.59948V19.1976C0 19.6748 0.189615 20.1326 0.527066 20.47C0.864718 20.8077 1.3225 20.9973 1.79974 20.9973H6.59897C6.59897 21.4745 6.78859 21.9323 7.12625 22.2698C7.4637 22.6074 7.92147 22.797 8.39871 22.797H20.3973C20.8746 22.797 21.3324 22.6074 21.6698 22.2698C22.0074 21.9323 22.1971 21.4745 22.1971 20.9973H26.9963C27.4735 20.9973 27.9313 20.8077 28.269 20.47C28.6064 20.1326 28.796 19.6748 28.796 19.1976V3.59948C28.796 3.12223 28.6064 2.66444 28.269 2.32701C27.9313 1.98936 27.4735 1.79974 26.9963 1.79974ZM1.79994 19.7971C1.46872 19.7971 1.19996 19.5286 1.19996 19.1973V3.59927C1.19996 3.26805 1.46872 2.9995 1.79994 2.9995H6.59918V11.3981H5.39942C5.0682 11.3981 4.79944 11.6667 4.79944 11.9981C4.79944 12.3293 5.0682 12.5979 5.39942 12.5979H6.59918V13.7976L5.39942 13.7978C5.0682 13.7978 4.79944 14.0664 4.79944 14.3976C4.79944 14.729 5.0682 14.9976 5.39942 14.9976H6.59918V16.1973H5.39942C5.0682 16.1973 4.79944 16.4661 4.79944 16.7973C4.79944 17.1285 5.0682 17.3973 5.39942 17.3973H6.59918V19.797L1.79994 19.7971ZM20.997 20.9969V20.9971C20.997 21.1562 20.9339 21.3086 20.8214 21.4213C20.7087 21.5338 20.5563 21.5969 20.3972 21.5969H8.3986C8.06738 21.5969 7.79883 21.3283 7.79883 20.9971V1.79953C7.79883 1.46831 8.06738 1.19976 8.3986 1.19976H20.3972C20.5563 1.19976 20.7087 1.26283 20.8214 1.37531C20.9339 1.488 20.997 1.64045 20.997 1.79954V20.9969ZM27.5959 19.1971L27.5961 19.1973C27.5961 19.3564 27.5328 19.5089 27.4203 19.6216C27.3078 19.7341 27.1552 19.7971 26.9961 19.7971H22.1968V17.3976H25.7963C26.1275 17.3976 26.3961 17.1289 26.3961 16.7976C26.3961 16.4664 26.1275 16.1976 25.7963 16.1976H22.1968V14.9979H25.7963C26.1275 14.9979 26.3961 14.7293 26.3961 14.3979C26.3961 14.0667 26.1275 13.7981 25.7963 13.7981H22.1968V12.5982H25.7963C26.1275 12.5982 26.3961 12.3296 26.3961 11.9984C26.3961 11.667 26.1275 11.3984 25.7963 11.3984H22.1968V2.9998H26.9961C27.1552 2.9998 27.3078 3.06288 27.4203 3.17536C27.5328 3.28805 27.5961 3.4405 27.5961 3.59959L27.5959 19.1971Z" fill="white"/>
</svg>
