<svg width="25" height="13" viewBox="0 0 25 13" fill="none" xmlns="http://www.w3.org/2000/svg">
<path d="M20.2551 6.46425C20.2551 5.98827 19.8692 5.60233 19.3932 5.60233C18.9172 5.60233 18.5312 5.98827 18.5312 6.46425C18.5312 6.94023 18.9172 7.32617 19.3932 7.32617C19.8692 7.32617 20.2551 6.94023 20.2551 6.46425Z" fill="#A8ABAE"/>
<path d="M9.48166 6.46425C9.48166 5.98827 9.09572 5.60233 8.61973 5.60233C8.14375 5.60233 7.75781 5.98827 7.75781 6.46425C7.75781 6.94023 8.14375 7.32617 8.61973 7.32617C9.09572 7.32617 9.48166 6.94023 9.48166 6.46425Z" fill="#A8ABAE"/>
<path d="M16.3762 6.46425C16.3762 5.98827 15.9902 5.60233 15.5143 5.60233C15.0383 5.60233 14.6523 5.98827 14.6523 6.46425C14.6523 6.94023 15.0383 7.32617 15.5143 7.32617C15.9902 7.32617 16.3762 6.94023 16.3762 6.46425Z" fill="#A8ABAE"/>
<path d="M5.60275 6.46425C5.60275 5.98827 5.21681 5.60233 4.74083 5.60233C4.26485 5.60233 3.87891 5.98827 3.87891 6.46425C3.87891 6.94023 4.26485 7.32617 4.74083 7.32617C5.21681 7.32617 5.60275 6.94023 5.60275 6.46425Z" fill="#A8ABAE"/>
<path d="M1.72266 4.30953H22.4088V8.61914H1.72266V4.30953ZM19.3921 8.18818C19.8492 8.18818 20.2877 8.00656 20.6111 7.68334C20.9343 7.35993 21.1159 6.92145 21.1159 6.46434C21.1159 6.00722 20.9343 5.56872 20.6111 5.24533C20.2876 4.92211 19.8492 4.74049 19.3921 4.74049C18.9349 4.74049 18.4964 4.92211 18.1731 5.24533C17.8498 5.56874 17.6682 6.00722 17.6682 6.46434C17.6682 6.92145 17.8498 7.35995 18.1731 7.68334C18.4965 8.00656 18.9349 8.18818 19.3921 8.18818ZM15.5134 8.18818C15.9705 8.18818 16.409 8.00656 16.7324 7.68334C17.0556 7.35993 17.2373 6.92145 17.2373 6.46434C17.2373 6.00722 17.0556 5.56872 16.7324 5.24533C16.409 4.92211 15.9705 4.74049 15.5134 4.74049C15.0563 4.74049 14.6178 4.92211 14.2944 5.24533C13.9712 5.56874 13.7896 6.00722 13.7896 6.46434C13.7896 6.92145 13.9712 7.35995 14.2944 7.68334C14.6178 8.00656 15.0563 8.18818 15.5134 8.18818ZM11.2038 6.8953H12.9276V6.03337H11.2038V6.8953ZM8.61803 8.18818C9.07516 8.18818 9.51364 8.00656 9.83704 7.68334C10.1603 7.35993 10.3419 6.92145 10.3419 6.46434C10.3419 6.00722 10.1603 5.56872 9.83704 5.24533C9.51362 4.92211 9.07515 4.74049 8.61803 4.74049C8.16092 4.74049 7.72242 4.92211 7.39903 5.24533C7.07581 5.56874 6.89419 6.00722 6.89419 6.46434C6.89419 6.92145 7.07581 7.35995 7.39903 7.68334C7.72244 8.00656 8.16092 8.18818 8.61803 8.18818ZM4.73938 8.18818C5.19651 8.18818 5.63499 8.00656 5.95839 7.68334C6.28161 7.35993 6.46323 6.92145 6.46323 6.46434C6.46323 6.00722 6.28161 5.56872 5.95839 5.24533C5.63497 4.92211 5.1965 4.74049 4.73938 4.74049C4.28227 4.74049 3.84377 4.92211 3.52038 5.24533C3.19716 5.56874 3.01554 6.00722 3.01554 6.46434C3.01554 6.92145 3.19716 7.35995 3.52038 7.68334C3.84379 8.00656 4.28227 8.18818 4.73938 8.18818Z" fill="#A8ABAE"/>
<path d="M21.979 12.9287H2.1548C1.58357 12.9279 1.03583 12.7007 0.631814 12.2969C0.227981 11.8929 0.000788043 11.3451 0 10.7739V2.15469C0.000769573 1.58345 0.227986 1.03572 0.631814 0.631696C1.03584 0.227863 1.58357 0.000670433 2.1548 -0.000118256H21.979C22.5502 0.00065136 23.098 0.227868 23.502 0.631696C23.9058 1.03572 24.133 1.58345 24.1338 2.15469V10.7739C24.133 11.3451 23.9058 11.8929 23.502 12.2969C23.098 12.7007 22.5502 12.9279 21.979 12.9287ZM23.2719 2.15469C23.2719 1.81184 23.1357 1.48283 22.8933 1.24046C22.6508 0.998086 22.3218 0.861828 21.979 0.861828H2.15483C1.81199 0.861828 1.48297 0.998041 1.2406 1.24046C0.998229 1.48287 0.861971 1.81189 0.861971 2.15469V10.7739C0.861971 11.1167 0.998185 11.4458 1.2406 11.6881C1.48302 11.9305 1.81203 12.0668 2.15483 12.0668H21.979C22.3219 12.0668 22.6509 11.9306 22.8933 11.6881C23.1356 11.4457 23.2719 11.1167 23.2719 10.7739V2.15469Z" fill="#A8ABAE"/>
<path d="M1.72266 2.15487C1.72266 2.04059 1.76806 1.93092 1.84887 1.85012C1.92967 1.76932 2.03934 1.72391 2.15362 1.72391H21.9778C22.0921 1.72391 22.2018 1.76932 22.2826 1.85012C22.3634 1.93093 22.4088 2.04059 22.4088 2.15487V3.44775H1.72266V2.15487ZM16.3753 3.01679H17.2373C17.4752 3.01679 17.6682 2.82382 17.6682 2.58583C17.6682 2.34784 17.4752 2.15487 17.2373 2.15487H16.3753C16.1373 2.15487 15.9444 2.34784 15.9444 2.58583C15.9444 2.82382 16.1373 3.01679 16.3753 3.01679ZM6.89419 3.01679H7.75611C7.9941 3.01679 8.18707 2.82382 8.18707 2.58583C8.18707 2.34784 7.9941 2.15487 7.75611 2.15487H6.89419C6.6562 2.15487 6.46323 2.34784 6.46323 2.58583C6.46323 2.82382 6.6562 3.01679 6.89419 3.01679Z" fill="#A8ABAE"/>
<path d="M21.9778 11.2048H2.15362C1.91563 11.2048 1.72266 11.0119 1.72266 10.7739V9.48099H22.4088V10.7739C22.4088 10.8882 22.3634 10.9978 22.2826 11.0786C22.2018 11.1594 22.0921 11.2048 21.9778 11.2048ZM7.75611 9.91195H6.89419C6.6562 9.91195 6.46323 10.1049 6.46323 10.3429C6.46323 10.5809 6.6562 10.7739 6.89419 10.7739H7.75611C7.9941 10.7739 8.18707 10.5809 8.18707 10.3429C8.18707 10.1049 7.9941 9.91195 7.75611 9.91195ZM17.2373 9.91195H16.3753C16.1373 9.91195 15.9444 10.1049 15.9444 10.3429C15.9444 10.5809 16.1373 10.7739 16.3753 10.7739H17.2373C17.4752 10.7739 17.6682 10.5809 17.6682 10.3429C17.6682 10.1049 17.4752 9.91195 17.2373 9.91195Z" fill="#A8ABAE"/>
</svg>
