<svg xmlns="http://www.w3.org/2000/svg" width="24" height="24" viewBox="0 0 17.5 23.5">
  <g id="pin-svgrepo-com" transform="translate(-3.25 -0.25)">
    <path id="Path_1" data-name="Path 1" d="M12,1V1Zm8,8.64h0ZM13.374,22.3l-.6-.455h0Zm-2.746,0,.6-.454h0ZM12,1.75a6.962,6.962,0,0,1,5.107,2.29l1.1-1.019A8.461,8.461,0,0,0,12,.25Zm5.107,2.29a8.253,8.253,0,0,1,2.143,5.6h1.5a9.752,9.752,0,0,0-2.543-6.619Zm2.143,5.6a7.939,7.939,0,0,1-.661,2.763A25.728,25.728,0,0,1,16.9,15.786a61.884,61.884,0,0,1-4.119,6.058l1.193.91a63.379,63.379,0,0,0,4.222-6.213,27.212,27.212,0,0,0,1.791-3.586A9.372,9.372,0,0,0,20.75,9.64ZM12.777,21.845a1.055,1.055,0,0,1-.358.3l.682,1.336a2.554,2.554,0,0,0,.87-.73Zm-.358.3a.919.919,0,0,1-.418.1v1.5a2.419,2.419,0,0,0,1.1-.266Zm-.418.1a.919.919,0,0,1-.418-.1L10.9,23.484a2.418,2.418,0,0,0,1.1.266Zm-.418-.1a1.055,1.055,0,0,1-.358-.3l-1.193.909a2.554,2.554,0,0,0,.87.73Zm-.358-.3A61.724,61.724,0,0,1,7.1,15.787,25.731,25.731,0,0,1,5.411,12.4,7.941,7.941,0,0,1,4.75,9.64H3.25a9.373,9.373,0,0,0,.767,3.316,27.214,27.214,0,0,0,1.792,3.587,63.178,63.178,0,0,0,4.223,6.212ZM4.75,9.64a8.253,8.253,0,0,1,2.143-5.6l-1.1-1.019A9.752,9.752,0,0,0,3.25,9.64Zm2.143-5.6A6.962,6.962,0,0,1,12,1.75V.25A8.461,8.461,0,0,0,5.793,3.021Z" fill="#BFBFBF"/>
    <path id="Path_2" data-name="Path 2" d="M14.25,9A2.25,2.25,0,0,1,12,11.25v1.5A3.75,3.75,0,0,0,15.75,9ZM12,11.25A2.25,2.25,0,0,1,9.75,9H8.25A3.75,3.75,0,0,0,12,12.75ZM9.75,9A2.25,2.25,0,0,1,12,6.75V5.25A3.75,3.75,0,0,0,8.25,9ZM12,6.75A2.25,2.25,0,0,1,14.25,9h1.5A3.75,3.75,0,0,0,12,5.25Z" fill="#BFBFBF"/>
  </g>
</svg>
