<svg width="800" height="800" viewBox="0 0 800 800" fill="none" xmlns="http://www.w3.org/2000/svg">
<path d="M399.998 741.519C586.493 741.519 741.518 586.83 741.518 400C741.518 213.504 586.159 58.4814 399.663 58.4814C212.832 58.4814 58.4805 213.504 58.4805 400C58.4805 586.83 213.168 741.519 399.998 741.519ZM399.998 207.143C463.949 207.143 514.842 263.393 514.842 331.027C514.842 403.013 464.283 457.924 399.998 457.254C335.378 456.584 285.155 403.013 285.155 331.027C284.485 263.393 335.712 207.143 399.998 207.143ZM603.569 598.214L604.573 602.567C553.012 657.477 476.672 688.951 399.998 688.951C322.989 688.951 246.649 657.477 195.088 602.567L196.092 598.214C225.22 558.036 296.873 514.174 399.998 514.174C502.788 514.174 574.775 558.036 603.569 598.214Z" fill="#EAEAEA"/>
</svg>
