<svg width="39" height="37" viewBox="0 0 39 37" fill="none" xmlns="http://www.w3.org/2000/svg">
<rect width="39" height="37" rx="10" fill="#1A2028"/>
<path d="M27.7812 26.875C25.5417 26.875 23.3587 26.3757 21.2323 25.3771C19.1059 24.3785 17.2222 23.059 15.5812 21.4187C13.9403 19.7785 12.6208 17.8948 11.6229 15.7677C10.625 13.6406 10.1257 11.4576 10.125 9.21875C10.125 8.90625 10.2292 8.64583 10.4375 8.4375C10.6458 8.22917 10.9063 8.125 11.2188 8.125H15.4375C15.6806 8.125 15.8976 8.20312 16.0885 8.35937C16.2795 8.51562 16.3924 8.71528 16.4271 8.95833L17.1042 12.6042C17.1389 12.8472 17.1344 13.0687 17.0906 13.2688C17.0469 13.4688 16.9472 13.6465 16.7917 13.8021L14.2917 16.3542C15.0208 17.6042 15.9323 18.776 17.026 19.8698C18.1198 20.9635 19.3264 21.9097 20.6458 22.7083L23.0937 20.2604C23.25 20.1042 23.4542 19.9872 23.7062 19.9094C23.9583 19.8316 24.2056 19.8097 24.4479 19.8438L28.0417 20.5729C28.2847 20.625 28.4844 20.7424 28.6406 20.925C28.7969 21.1076 28.875 21.3201 28.875 21.5625V25.7812C28.875 26.0938 28.7708 26.3542 28.5625 26.5625C28.3542 26.7708 28.0938 26.875 27.7812 26.875Z" fill="white"/>
</svg>
