<svg width="15" height="17" viewBox="0 0 15 17" fill="none" xmlns="http://www.w3.org/2000/svg">
<path fill-rule="evenodd" clip-rule="evenodd" d="M10.8524 3.46286H9.41645C11.0397 2.83319 10.6651 0 8.97936 0H6.045C4.35927 0 3.92219 2.83331 5.54548 3.46286H4.10952C3.67243 3.46286 3.36024 3.96661 3.2355 4.5332L1.79953 12.026V12.1519C-0.760209 12.5297 -0.510572 17 2.04929 17H12.9752C15.5349 17 15.7223 12.5296 13.2249 12.1519C13.2249 12.089 13.2249 12.089 13.1625 12.026L11.7265 4.5332C11.6017 3.96649 11.3519 3.46286 10.8525 3.46286H10.8524ZM9.10426 4.78508C9.41645 4.78508 9.72864 4.91101 9.91596 5.16287C10.353 5.66662 10.353 6.54805 9.91596 7.0518L9.72865 7.2407C10.0408 7.2407 10.2906 7.42961 10.4779 7.6185C10.915 8.12225 10.915 9.00367 10.4779 9.50742L10.2906 9.69633C10.6028 9.69633 10.8526 9.82226 11.0399 10.0741C11.477 10.5779 11.477 11.4593 11.0399 11.963C10.7901 12.2149 10.5404 12.3408 10.2282 12.3408H4.73392C4.42173 12.3408 4.17197 12.2149 3.98464 11.963C3.54756 11.4593 3.54756 10.5779 3.98464 10.0741C4.17196 9.82225 4.42172 9.69633 4.67145 9.69633C4.60901 9.63336 4.54658 9.57039 4.54658 9.50742C4.04706 9.00367 4.04706 8.12225 4.54658 7.6185C4.73389 7.42959 4.98366 7.2407 5.23339 7.2407C5.17095 7.17773 5.10851 7.11477 5.04607 7.0518C4.60899 6.54805 4.60899 5.66662 5.04607 5.16287C5.29583 4.911 5.54559 4.78508 5.85778 4.78508H9.1043H9.10426ZM10.1656 12.9072C10.3529 12.9072 10.5402 12.9072 10.7275 12.8442C11.0397 12.6553 11.2895 12.4664 11.6016 12.3405C11.9138 12.1516 12.2884 12.0886 12.7253 12.1516C12.9127 12.1516 12.8502 12.4034 12.7253 12.4034C12.2883 12.3405 11.9761 12.4034 11.664 12.5294C11.3518 12.6553 11.1021 12.8442 10.8523 13.0961C10.6025 13.159 10.3528 13.159 10.1655 13.159H4.79615C4.60883 13.159 4.35906 13.159 4.17177 13.0961H4.10933C3.85958 12.8442 3.60981 12.6553 3.29762 12.5294C2.98543 12.4034 2.67324 12.3405 2.23628 12.4034C2.1114 12.4034 2.1114 12.1516 2.23628 12.1516C2.67336 12.0886 3.04799 12.1516 3.36006 12.3405C3.67225 12.4664 3.98444 12.6553 4.23407 12.8442C4.42139 12.9072 4.6087 12.9072 4.79602 12.9072H10.1656Z" fill="black" fill-opacity="0.3"/>
</svg>
