<svg width="25" height="24" viewBox="0 0 25 24" fill="none" xmlns="http://www.w3.org/2000/svg">
<path d="M9.90285 19.3711L10.4873 20.6856C10.661 21.0768 10.9446 21.4093 11.3035 21.6426C11.6625 21.8759 12.0814 22.0001 12.5095 22C12.9376 22.0001 13.3566 21.8759 13.7155 21.6426C14.0745 21.4093 14.358 21.0768 14.5317 20.6856L15.1162 19.3711C15.3242 18.9047 15.6742 18.5159 16.1162 18.26C16.561 18.0034 17.0755 17.8941 17.5862 17.9478L19.0162 18.1C19.4419 18.145 19.8715 18.0656 20.2529 17.8713C20.6343 17.6771 20.9512 17.3763 21.1651 17.0056C21.3793 16.635 21.4813 16.2103 21.4588 15.7829C21.4363 15.3555 21.2903 14.9438 21.0384 14.5978L20.1917 13.4344C19.8903 13.0171 19.7292 12.5148 19.7317 12C19.7316 11.4866 19.8942 10.9864 20.1962 10.5711L21.0429 9.40778C21.2947 9.06175 21.4408 8.65007 21.4633 8.22267C21.4857 7.79528 21.3837 7.37054 21.1695 7C20.9556 6.62923 20.6387 6.32849 20.2573 6.13423C19.8759 5.93997 19.4463 5.86053 19.0206 5.90556L17.5906 6.05778C17.08 6.11141 16.5654 6.00212 16.1206 5.74556C15.6778 5.48825 15.3277 5.09736 15.1206 4.62889L14.5317 3.31444C14.358 2.92317 14.0745 2.59072 13.7155 2.3574C13.3566 2.12408 12.9376 1.99993 12.5095 2C12.0814 1.99993 11.6625 2.12408 11.3035 2.3574C10.9446 2.59072 10.661 2.92317 10.4873 3.31444L9.90285 4.62889C9.69578 5.09736 9.34573 5.48825 8.90285 5.74556C8.45807 6.00212 7.94352 6.11141 7.43285 6.05778L5.99841 5.90556C5.57274 5.86053 5.14315 5.93997 4.76173 6.13423C4.3803 6.32849 4.06343 6.62923 3.84952 7C3.63534 7.37054 3.5333 7.79528 3.55579 8.22267C3.57827 8.65007 3.72431 9.06175 3.97619 9.40778L4.82285 10.5711C5.1248 10.9864 5.28739 11.4866 5.2873 12C5.28739 12.5134 5.1248 13.0137 4.82285 13.4289L3.97619 14.5922C3.72431 14.9382 3.57827 15.3499 3.55579 15.7773C3.5333 16.2047 3.63534 16.6295 3.84952 17C4.06364 17.3706 4.38055 17.6712 4.76192 17.8654C5.14329 18.0596 5.57277 18.1392 5.99841 18.0944L7.42841 17.9422C7.93908 17.8886 8.45363 17.9979 8.89841 18.2544C9.34294 18.511 9.69462 18.902 9.90285 19.3711Z" stroke="black" stroke-width="2" stroke-linecap="round" stroke-linejoin="round"/>
<path d="M12.5077 15C14.1646 15 15.5077 13.6569 15.5077 12C15.5077 10.3431 14.1646 9 12.5077 9C10.8509 9 9.50773 10.3431 9.50773 12C9.50773 13.6569 10.8509 15 12.5077 15Z" stroke="black" stroke-width="2" stroke-linecap="round" stroke-linejoin="round"/>
</svg>
