<svg width="26" height="26" viewBox="0 0 26 26" fill="none" xmlns="http://www.w3.org/2000/svg">
<path fill-rule="evenodd" clip-rule="evenodd" d="M15.9103 5.68787C16.2139 5.81196 16.5079 5.96565 16.7911 6.14524L15.2505 7.68581C14.5625 7.30846 13.8078 7.09074 13.0158 7.09074C9.73546 7.09074 7.09679 10.8256 7.1694 14.1686L7.20337 15.733L4.33661 18.5997C4.30021 17.7777 4.64374 16.865 5.23758 16.1015L5.23761 14.2123C5.16373 10.8108 7.19957 6.88598 10.1135 5.69104V5.12105C10.1135 4.33745 10.4189 3.58595 10.9625 3.03187C11.506 2.47779 12.2432 2.1665 13.0119 2.1665C13.7806 2.1665 14.5179 2.47779 15.0614 3.03187C15.605 3.58595 15.9103 4.33746 15.9103 5.12105V5.68787ZM13.978 5.12105C13.978 5.14105 13.9775 5.16099 13.9763 5.18084C13.6616 5.14137 13.341 5.12105 13.0158 5.12105C12.6879 5.12105 12.3647 5.14171 12.0476 5.1818C12.0464 5.16164 12.0458 5.14137 12.0458 5.12105C12.0458 4.85985 12.1476 4.60936 12.3288 4.42466C12.5099 4.23996 12.7557 4.1362 13.0119 4.1362C13.2681 4.1362 13.5139 4.23996 13.6951 4.42466C13.8763 4.60936 13.978 4.85985 13.978 5.12105Z" fill="#F4B755"/>
<path fill-rule="evenodd" clip-rule="evenodd" d="M18.1424 10.9219L19.6374 9.42676C20.4011 10.9149 20.8286 12.6222 20.7935 14.2149L20.752 16.0955C22.2435 18.0133 22.1897 20.8786 18.4752 20.8786H15.9098C15.9098 21.6621 15.6045 22.4137 15.0609 22.9678C14.5174 23.5219 13.7802 23.8331 13.0115 23.8331C12.2427 23.8331 11.5055 23.5219 10.962 22.9678C10.4184 22.4137 10.1131 21.6621 10.1131 20.8786H8.18555L10.1552 18.9088H18.4752C19.3005 18.9088 19.7458 17.9219 19.2087 17.2831C18.9477 16.9727 18.8086 16.5778 18.8176 16.1725L18.8617 14.1707C18.8857 13.0818 18.6221 11.9514 18.1424 10.9219ZM12.0454 20.8786C12.0454 21.1398 12.1472 21.3903 12.3283 21.575C12.5095 21.7596 12.7553 21.8634 13.0115 21.8634C13.2677 21.8634 13.5135 21.7596 13.6946 21.575C13.8759 21.3903 13.9776 21.1398 13.9776 20.8786H12.0454Z" fill="#F4B755"/>
<path d="M21.35 6.18286C21.7731 5.75979 21.7731 5.07387 21.35 4.65079C20.927 4.22773 20.241 4.22773 19.818 4.65079L4.65128 19.8175C4.22822 20.2405 4.22822 20.9265 4.65128 21.3495C5.07436 21.7726 5.76028 21.7726 6.18335 21.3495L21.35 6.18286Z" fill="#F4B755"/>
</svg>
