<svg width="31" height="30" viewBox="0 0 31 30" fill="none" xmlns="http://www.w3.org/2000/svg">
<path d="M13.2969 10V8.75M13.2969 15.625V14.375M13.2969 21.25V20M7.29688 5H24.2969C25.697 5 26.3971 5 26.9319 5.27248C27.4023 5.51217 27.7847 5.89462 28.0244 6.36502C28.2969 6.8998 28.2969 7.59987 28.2969 9V10.625C25.8806 10.625 23.9219 12.5838 23.9219 15C23.9219 17.4162 25.8806 19.375 28.2969 19.375V21C28.2969 22.4001 28.2969 23.1002 28.0244 23.635C27.7847 24.1054 27.4023 24.4878 26.9319 24.7275C26.3971 25 25.697 25 24.2969 25H7.29688C5.89674 25 5.19668 25 4.6619 24.7275C4.19149 24.4878 3.80904 24.1054 3.56936 23.635C3.29688 23.1002 3.29688 22.4001 3.29688 21V19.375C5.71312 19.375 7.67188 17.4162 7.67188 15C7.67188 12.5838 5.71312 10.625 3.29688 10.625V9C3.29688 7.59987 3.29688 6.8998 3.56936 6.36502C3.80904 5.89462 4.19149 5.51217 4.6619 5.27248C5.19668 5 5.89674 5 7.29688 5Z" stroke="white" stroke-width="2" stroke-linecap="round" stroke-linejoin="round"/>
</svg>
