<svg width="21" height="18" viewBox="0 0 21 18" fill="none" xmlns="http://www.w3.org/2000/svg">
<path d="M20.0523 10.8023H19.2519C19.1262 10.8023 19.0183 10.8796 18.9699 10.9901L18.1646 8.87094C17.9224 8.23393 17.3599 7.82227 16.7315 7.82227L15.4919 7.82241H10.2294C9.60101 7.82241 9.03837 8.23408 8.7963 8.87109L7.99102 10.9904C7.94258 10.8799 7.83467 10.8024 7.70903 10.8024H6.90863C6.7727 10.8024 6.66211 10.9157 6.66211 11.0551V11.4189C6.66211 11.5581 6.7727 11.6712 6.90863 11.6712H7.5978C7.66279 11.6712 7.70765 11.7362 7.68455 11.7969L7.53177 12.1989H7.53163L7.41835 12.4703C7.30045 12.8571 7.24069 13.4693 7.24069 13.874L7.24024 15.4884V17.6429C7.24024 17.8096 7.37543 17.9447 7.54206 17.9447H8.94517C9.1118 17.9447 9.24684 17.8097 9.24684 17.6429V16.9436H17.7136V17.6429C17.7136 17.8096 17.8488 17.9447 18.0155 17.9447H19.4186C19.5852 17.9447 19.7204 17.8097 19.7204 17.6429V15.3871L19.7201 13.8585L19.7198 13.8583C19.7183 13.4538 19.6588 12.8526 19.5424 12.4704L19.429 12.199H19.4289L19.2764 11.7969C19.2533 11.7362 19.2981 11.6712 19.3631 11.6712H20.0523C20.1882 11.6712 20.2988 11.558 20.2988 11.4189V11.0551C20.2987 10.9157 20.1881 10.8023 20.0521 10.8023L20.0523 10.8023ZM8.62531 11.4056L9.40736 9.20584C9.55447 8.74545 9.88328 8.44795 10.2447 8.44795H16.7167C17.0781 8.44795 17.4068 8.74545 17.554 9.20569L18.3361 11.4056C18.462 11.7597 18.208 12.1353 17.8426 12.1353H9.11897C8.75351 12.1353 8.4997 11.7599 8.62546 11.4056H8.62531ZM10.0038 15.4883H8.91728C8.49192 15.4883 8.14714 15.1435 8.14714 14.7182V13.9367H8.97986C9.69112 13.9367 10.2675 14.5132 10.2675 15.2245C10.2676 15.3702 10.1494 15.4883 10.0038 15.4883L10.0038 15.4883ZM15.5059 15.2407C15.5059 15.5212 15.3032 15.7485 15.0533 15.7485H11.9631C11.7132 15.7485 11.5105 15.5212 11.5105 15.2407V14.4256C11.5105 14.1451 11.7132 13.9178 11.9631 13.9178H15.0533C15.3032 13.9178 15.5059 14.1451 15.5059 14.4256V15.2407ZM18.814 14.6993C18.814 15.1246 18.4691 15.4694 18.0439 15.4694H16.9575C16.8117 15.4694 16.6936 15.3513 16.6936 15.2056V15.036C16.6936 14.4184 17.1943 13.9178 17.8118 13.9178H18.8142L18.814 14.6993Z" fill="#F4B755"/>
<path d="M6.15638 12.2036V11.8397C6.15638 11.4215 6.49397 11.0812 6.90877 11.0812H7.70917H7.71364L8.32353 9.47617C8.641 8.6409 9.38922 8.10122 10.2295 8.10122H13.2274L13.2276 0.0556641H3.97401V3.77797C3.97401 3.91762 3.86074 4.0309 3.72108 4.0309L0 4.03105V17.159H6.7349L6.7352 14.659C6.7352 14.2275 6.7978 13.5579 6.93493 13.108L6.95192 13.0605L6.99305 12.9621H6.90914C6.49419 12.962 6.15659 12.6218 6.15659 12.2036L6.15638 12.2036ZM2.85543 5.64838H10.1432C10.2829 5.64838 10.3961 5.76165 10.3961 5.90131C10.3961 6.04096 10.2829 6.15424 10.1432 6.15424L2.85543 6.15439C2.71577 6.15439 2.6025 6.04111 2.6025 5.90146C2.6025 5.76165 2.71578 5.64838 2.85543 5.64838ZM2.85543 7.71952H8.60553C8.74519 7.71952 8.85846 7.8328 8.85846 7.97245C8.85846 8.11211 8.74518 8.22538 8.60553 8.22538H2.85543C2.71577 8.22538 2.6025 8.11211 2.6025 7.97245C2.6025 7.8328 2.71578 7.71952 2.85543 7.71952ZM2.85543 9.79051H7.40553C7.54518 9.79051 7.65846 9.90379 7.65846 10.0434C7.65846 10.1831 7.54518 10.2964 7.40553 10.2964L2.85543 10.2965C2.71577 10.2965 2.6025 10.1832 2.6025 10.0436C2.6025 9.90378 2.71578 9.79051 2.85543 9.79051ZM2.85543 11.8617H5.54466C5.68432 11.8617 5.79759 11.9749 5.79759 12.1146C5.79759 12.2542 5.68431 12.3675 5.54466 12.3675H2.85543C2.71577 12.3675 2.6025 12.2542 2.6025 12.1146C2.6025 11.9749 2.71578 11.8617 2.85543 11.8617ZM6.13638 14.4385H2.85543C2.71577 14.4385 2.6025 14.3252 2.6025 14.1856C2.6025 14.0459 2.71578 13.9326 2.85543 13.9326H6.13638C6.27604 13.9326 6.38931 14.0459 6.38931 14.1856C6.38931 14.3254 6.27604 14.4385 6.13638 14.4385Z" fill="#F4B755"/>
</svg>
