<svg width="23" height="18" viewBox="0 0 23 18" fill="none" xmlns="http://www.w3.org/2000/svg">
<path d="M20.4418 3.47397H19.7739V2.08465C19.767 1.80394 19.7048 1.52734 19.5909 1.27066C19.4771 1.01399 19.3137 0.782262 19.1103 0.588731C18.9068 0.395199 18.6672 0.243654 18.4052 0.142754C18.1431 0.041855 17.8638 -0.00642107 17.5831 0.000684468H2.00672C1.7356 -0.00337777 1.46654 0.048371 1.21628 0.152714C0.966007 0.257057 0.739877 0.411764 0.551941 0.607217C0.364005 0.80267 0.218282 1.03469 0.12383 1.28886C0.0293775 1.54302 -0.0117845 1.8139 0.00290265 2.08465V13.2259C-0.00843942 13.492 0.0356298 13.7577 0.132318 14.0059C0.229006 14.2542 0.376205 14.4796 0.564587 14.668C0.752969 14.8564 0.978427 15.0036 1.22667 15.1003C1.47492 15.197 1.74055 15.241 2.00672 15.2297H3.47618V15.5503C3.48311 15.831 3.54529 16.1076 3.65916 16.3643C3.77302 16.621 3.93635 16.8527 4.13981 17.0462C4.34327 17.2398 4.58286 17.3913 4.84491 17.4922C5.10695 17.5931 5.38631 17.6414 5.66702 17.6343H20.4418C20.7129 17.6383 20.982 17.5866 21.2323 17.4822C21.4825 17.3779 21.7087 17.2232 21.8966 17.0277C22.0845 16.8323 22.2303 16.6003 22.3247 16.3461C22.4192 16.0919 22.4603 15.8211 22.4456 15.5503V5.47778C22.457 5.21161 22.4129 4.94599 22.3162 4.69774C22.2195 4.44949 22.0723 4.22403 21.884 4.03565C21.6956 3.84727 21.4701 3.70007 21.2219 3.60338C20.9736 3.50669 20.708 3.46262 20.4418 3.47397ZM18.1708 13.3595C18.1708 13.5012 18.1145 13.6371 18.0143 13.7373C17.9141 13.8375 17.7782 13.8938 17.6365 13.8938H2.14031C1.99859 13.8938 1.86267 13.8375 1.76246 13.7373C1.66225 13.6371 1.60596 13.5012 1.60596 13.3595V2.13809C1.60596 1.99637 1.66225 1.86046 1.76246 1.76025C1.86267 1.66004 1.99859 1.60374 2.14031 1.60374H17.6365C17.7782 1.60374 17.9141 1.66004 18.0143 1.76025C18.1145 1.86046 18.1708 1.99637 18.1708 2.13809V13.3595Z" fill="#F4B755"/>
<path d="M14.3766 7.34792C14.3123 7.23849 14.2222 7.14651 14.1141 7.08005C14.0061 7.01359 13.8833 6.9747 13.7567 6.96678C13.63 6.95887 13.5034 6.98218 13.3879 7.03466C13.2723 7.08714 13.1715 7.16719 13.0941 7.26777L11.5712 9.16472L8.57886 5.66472C8.50727 5.57198 8.41339 5.49885 8.30595 5.45214C8.19851 5.40543 8.081 5.38665 7.96436 5.39754C7.84565 5.39213 7.72744 5.41612 7.62023 5.46739C7.51303 5.51866 7.42015 5.59562 7.34985 5.69144L3.18191 11.1953C3.092 11.3221 3.03723 11.4705 3.02315 11.6253C3.00908 11.7801 3.0362 11.936 3.10176 12.0769C3.16583 12.2159 3.26716 12.3344 3.3945 12.4193C3.52183 12.5042 3.6702 12.5522 3.82314 12.5578H16.3002C16.4479 12.5447 16.5903 12.4967 16.7157 12.4177C16.8411 12.3388 16.946 12.2311 17.0216 12.1036C17.0861 11.9683 17.1151 11.8188 17.1057 11.6692C17.0964 11.5196 17.049 11.3749 16.9682 11.2487L14.3766 7.34792Z" fill="#F4B755"/>
</svg>
