<svg width="26" height="26" viewBox="0 0 26 26" fill="none" xmlns="http://www.w3.org/2000/svg">
<path d="M19.5008 6.4998C19.2976 6.29671 19.0221 6.18262 18.7349 6.18262C18.4476 6.18262 18.1721 6.29671 17.9689 6.4998L13.0008 11.468L8.03261 6.4998C7.82946 6.29671 7.55396 6.18262 7.2667 6.18262C6.97943 6.18262 6.70393 6.29671 6.50078 6.4998C6.29769 6.70296 6.18359 6.97846 6.18359 7.26572C6.18359 7.55298 6.29769 7.82848 6.50078 8.03164L11.4689 12.9998L6.50078 17.968C6.29769 18.1711 6.18359 18.4466 6.18359 18.7339C6.18359 19.0211 6.29769 19.2966 6.50078 19.4998C6.70393 19.7029 6.97943 19.817 7.2667 19.817C7.55396 19.817 7.82946 19.7029 8.03261 19.4998L13.0008 14.5316L17.9689 19.4998C18.1721 19.7029 18.4476 19.817 18.7349 19.817C19.0221 19.817 19.2976 19.7029 19.5008 19.4998C19.7039 19.2966 19.818 19.0211 19.818 18.7339C19.818 18.4466 19.7039 18.1711 19.5008 17.968L14.5326 12.9998L19.5008 8.03164C19.7039 7.82848 19.818 7.55298 19.818 7.26572C19.818 6.97846 19.7039 6.70296 19.5008 6.4998Z" fill="#F4B755"/>
</svg>
