<svg width="27" height="27" viewBox="0 0 27 27" fill="none" xmlns="http://www.w3.org/2000/svg">
<path fill-rule="evenodd" clip-rule="evenodd" d="M11 23.625H16C19.5112 23.625 21.2667 23.625 22.5279 22.7977C23.0738 22.4395 23.5426 21.9793 23.9073 21.4433C24.75 20.2051 24.75 18.4814 24.75 15.0341C24.75 11.5868 24.75 9.86312 23.9073 8.62493C23.5426 8.0889 23.0738 7.62867 22.5279 7.27051C21.7175 6.7389 20.703 6.54888 19.1498 6.48096C18.4085 6.48096 17.7704 5.92952 17.625 5.21591C17.407 4.1455 16.4497 3.375 15.3379 3.375H11.6621C10.5503 3.375 9.59305 4.1455 9.375 5.21591C9.22964 5.92952 8.59146 6.48096 7.85025 6.48096C6.297 6.54888 5.2825 6.7389 4.47215 7.27051C3.9262 7.62867 3.45744 8.0889 3.09265 8.62493C2.25 9.86312 2.25 11.5868 2.25 15.0341C2.25 18.4814 2.25 20.2051 3.09265 21.4433C3.45744 21.9793 3.9262 22.4395 4.47215 22.7977C5.73327 23.625 7.48884 23.625 11 23.625ZM13.5 10.4318C10.9112 10.4318 8.8125 12.4923 8.8125 15.0341C8.8125 17.5759 10.9112 19.6364 13.5 19.6364C16.0888 19.6364 18.1875 17.5759 18.1875 15.0341C18.1875 12.4923 16.0888 10.4318 13.5 10.4318ZM13.5 12.2727C11.9467 12.2727 10.6875 13.509 10.6875 15.0341C10.6875 16.5592 11.9467 17.7955 13.5 17.7955C15.0533 17.7955 16.3125 16.5592 16.3125 15.0341C16.3125 13.509 15.0533 12.2727 13.5 12.2727ZM18.8125 11.3523C18.8125 10.8439 19.2322 10.4318 19.75 10.4318H21C21.5178 10.4318 21.9375 10.8439 21.9375 11.3523C21.9375 11.8606 21.5178 12.2727 21 12.2727H19.75C19.2322 12.2727 18.8125 11.8606 18.8125 11.3523Z" fill="#F4B755"/>
</svg>
